<?xml version="1.0" standalone="no"?>
<!DOCTYPE svg PUBLIC "-//W3C//DTD SVG 1.1//EN" "http://www.w3.org/Graphics/SVG/1.1/DTD/svg11.dtd" >
<svg xmlns="http://www.w3.org/2000/svg">
<metadata></metadata>
<defs>
<font id="open_sans_hebrew_condensedBd" horiz-adv-x="0" >
<font-face units-per-em="2048" ascent="1638" descent="-410" />
<missing-glyph horiz-adv-x="506" />
<glyph unicode="&#xd;" horiz-adv-x="682" />
<glyph unicode=" "  horiz-adv-x="506" />
<glyph unicode="&#x09;" horiz-adv-x="506" />
<glyph unicode="&#xa0;" horiz-adv-x="506" />
<glyph unicode="!" horiz-adv-x="555" d="M387 471h-219l-49 991h319zM276 301q81 0 123.5 -42.5t42.5 -121t-43.5 -121.5t-123 -43t-122 43t-42.5 121.5t42 121t123 42.5z" />
<glyph unicode="&#x22;" horiz-adv-x="913" d="M342 934h-180l-41 528h262zM752 934h-181l-41 528h263z" />
<glyph unicode="#" horiz-adv-x="1114" d="M1075 1049v-193h-219l-37 -252h203v-194h-229l-60 -410h-192l61 410h-182l-58 -410h-192l59 410h-188v194h217l37 252h-201v193h230l59 413h188l-59 -413h182l62 413h188l-59 -413h190zM483 856l-34 -252h180l37 252h-183z" />
<glyph unicode="$" horiz-adv-x="948" d="M530 1556v-159q157 -11 308 -86l-80 -213q-129 62 -228 71v-317q31 -12 31 -14q129 -56 191 -107t92 -117.5t30 -156.5q0 -159 -89.5 -254.5t-254.5 -112.5v-209h-116v205q-190 6 -340 84v246q176 -103 340 -111v338l-35 16q-170 81 -238 167q-67 86 -67 227t89 232.5 t251 109.5v161h116zM309 1044q0 -51 24 -82.5t81 -54.5v262q-105 -17 -105 -125zM639 451q0 45 -20 75t-89 64v-279q109 19 109 140z" />
<glyph unicode="%" horiz-adv-x="1554" d="M352 1483q295 0 295 -457q0 -226 -75.5 -343.5t-221.5 -117.5t-216.5 114t-70.5 343q0 461 289 461zM578 0h-207l602 1462h209zM414.5 1226q-19.5 64 -61 64t-59.5 -63t-18 -203t18 -203t60 -63t61 63.5t19 202t-19.5 202.5zM1196 899q295 0 295 -457 q0 -225 -75.5 -342.5t-222 -117.5t-216.5 113t-70 343q0 461 289 461zM1198 705q-41 0 -59.5 -63t-18.5 -202.5t18 -202.5t60 -63t61 63.5t19 202t-19.5 202t-60.5 63.5z" />
<glyph unicode="&#x26;" horiz-adv-x="1190" d="M801 102q-137 -122 -333.5 -122t-302.5 109t-106 302q0 248 244 416q-76 118 -101.5 187t-25.5 147q0 156 97 249t252 93t245 -86.5t90 -239.5q0 -107 -56.5 -201.5t-182.5 -189.5l204 -287q48 88 86 289h232q-37 -278 -166 -498l194 -270h-299zM588.5 1226 q-25.5 31 -68.5 31t-69.5 -33t-26.5 -88.5t20.5 -101t61.5 -100.5q61 46 84.5 90t23.5 107.5t-25.5 94.5zM328 416q0 -93 44 -146t120 -53q99 0 176 74l-240 346q-100 -90 -100 -221z" />
<glyph unicode="'" horiz-adv-x="504" d="M342 934h-180l-41 528h262z" />
<glyph unicode="(" horiz-adv-x="666" d="M398.5 1040q-72.5 -231 -72.5 -477.5t75 -476.5t207 -410h-233q-147 170 -224 397t-77 490t77.5 494t223.5 405h235q-139 -191 -211.5 -422z" />
<glyph unicode=")" horiz-adv-x="666" d="M291 1462q148 -177 224.5 -408.5t76.5 -493.5t-77.5 -489t-223.5 -395h-234q136 186 209.5 414.5t73.5 473.5t-72.5 476t-212.5 422h236z" />
<glyph unicode="*" horiz-adv-x="952" d="M557 1249l311 86l33 -225l-285 -18l185 -246l-199 -109l-129 260l-117 -260l-204 109l182 246l-281 22l37 221l303 -86l-37 307h238z" />
<glyph unicode="+" horiz-adv-x="918" d="M557 825h254v-207h-254v-368h-197v368h-254v207h254v373h197v-373z" />
<glyph unicode="," horiz-adv-x="553" d="M416 238l14 -23q-53 -205 -176 -479h-203q65 269 101 502h264z" />
<glyph unicode="-" horiz-adv-x="647" d="M575 432h-503v234h503v-234z" />
<glyph unicode="." horiz-adv-x="553" d="M276 301q81 0 123.5 -42.5t42.5 -121t-43.5 -121.5t-123 -43t-122 43t-42.5 121.5t42 121t123 42.5z" />
<glyph unicode="/" horiz-adv-x="829" d="M272 0h-256l545 1462h256z" />
<glyph unicode="0" horiz-adv-x="948" d="M166 158q-92 179 -92 574.5t97.5 574t306 178.5t302.5 -175t94 -575.5t-96 -577.5q-94 -177 -306.5 -177t-305.5 178zM473 1253q-74 0 -100.5 -111t-26.5 -413.5t26.5 -410t100.5 -107.5q50 0 77.5 46t39.5 152.5t12 366t-28.5 368.5t-100.5 109z" />
<glyph unicode="1" horiz-adv-x="948" d="M729 0h-268v858q0 134 14 322q-8 -11 -50 -59.5t-175 -184.5l-152 166l389 360h242v-1462z" />
<glyph unicode="2" horiz-adv-x="948" d="M451 1483q177 0 276.5 -103.5t99.5 -289.5q0 -160 -73 -310q-36 -76 -93.5 -160t-281.5 -370v-8h479v-242h-784v203l260 368q106 151 146 223q79 145 79 283q0 82 -36.5 125t-94 43t-104 -28.5t-111.5 -100.5l-152 160q107 120 196.5 163.5t193.5 43.5z" />
<glyph unicode="3" horiz-adv-x="948" d="M436 1483q186 0 289.5 -93.5t103.5 -256.5q0 -137 -68 -231t-192 -130v-8q140 -22 214.5 -109t74.5 -233q0 -202 -125 -322t-344 -120q-194 0 -326 69v244q143 -86 291 -86q118 0 176 54t58 169q0 219 -269 219h-83v203h79q120 0 183 56.5t63 166.5q0 86 -40 131t-115 45 q-114 0 -220 -96l-123 180q148 148 373 148z" />
<glyph unicode="4" horiz-adv-x="948" d="M770 532h148v-225h-148v-307h-256v307h-477v221l442 934h291v-930zM514 532v308l5 136l7 130h-8q-31 -99 -76 -197l-176 -377h248z" />
<glyph unicode="5" horiz-adv-x="948" d="M782 1219h-391l-20 -316q55 12 129 12q165 0 262.5 -115.5t97.5 -314.5q0 -238 -121.5 -371.5t-337.5 -133.5q-193 0 -311 73v254q51 -37 131 -65.5t150 -28.5q215 0 215 250q0 233 -209 233q-82 0 -176 -32l-88 65l45 733h624v-243z" />
<glyph unicode="6" horiz-adv-x="948" d="M563 944q148 0 229.5 -120t81.5 -346t-108 -363q-108 -135 -298.5 -135t-292 162t-101.5 479q0 448 139 654t424 206q92 0 158 -17v-225q-67 16 -136 16q-221 0 -298 -200q-39 -102 -46 -279h11q71 168 237 168zM575 661q-33 64 -95 64t-99 -61t-37 -154q0 -145 34 -223 t96.5 -78t98 68t35.5 194t-33 190z" />
<glyph unicode="7" horiz-adv-x="948" d="M80 1219v241h784v-184l-403 -1276h-281l410 1219h-510z" />
<glyph unicode="8" horiz-adv-x="948" d="M98 1120q0 164 105.5 262.5t274.5 98.5t270.5 -97.5t101.5 -263.5q0 -105 -49 -188.5t-160 -157.5q126 -89 181 -184t55 -211q0 -179 -110 -289t-295.5 -110t-292.5 101.5t-107 289.5q0 250 219 391q-104 83 -149 167q-44 86 -44 191zM473 1270q-115 0 -115 -160 q0 -66 23.5 -114.5t93.5 -104.5q64 50 89.5 100.5t25.5 118.5q0 160 -117 160zM363 535q-33 -62 -33 -150.5t37 -140t107 -51.5t107 51t37 141q0 63 -28.5 118t-112.5 130l-14 14q-67 -50 -100 -112z" />
<glyph unicode="9" horiz-adv-x="948" d="M381 516q-148 0 -230.5 121.5t-82.5 345.5t107 361q108 137 288 137q196 0 300.5 -169t104.5 -487q0 -845 -565 -845q-96 0 -156 16v229q66 -22 127 -22q168 0 254 117t95 364h-9q-33 -80 -92.5 -124t-140.5 -44zM600 950q0 131 -37 215t-98.5 84t-96 -67t-34.5 -194 q0 -253 125 -253q57 0 99 65.5t42 149.5z" />
<glyph unicode=":" horiz-adv-x="553" d="M276 1137q81 0 123.5 -42.5t42.5 -121t-43.5 -121.5t-123 -43t-122 43t-42.5 121.5t42 121t123 42.5zM276 301q81 0 123.5 -42.5t42.5 -121t-43.5 -121.5t-123 -43t-122 43t-42.5 121.5t42 121t123 42.5z" />
<glyph unicode=";" horiz-adv-x="553" d="M276 1137q81 0 123.5 -42.5t42.5 -121t-43.5 -121.5t-123 -43t-122 43t-42.5 121.5t42 121t123 42.5zM416 238l14 -23q-53 -205 -176 -479h-203q65 269 101 502h264z" />
<glyph unicode="&#x3c;" horiz-adv-x="918" d="M811 1010l-487 -287l487 -289v-225l-705 436v156l705 434v-225z" />
<glyph unicode="=" horiz-adv-x="918" d="M811 815h-705v205h705v-205zM811 422h-705v207h705v-207z" />
<glyph unicode="&#x3e;" horiz-adv-x="918" d="M811 801v-156l-705 -436v225l490 289l-490 287v225z" />
<glyph unicode="?" horiz-adv-x="782" d="M373 1483q165 0 260.5 -91.5t95.5 -254.5q0 -115 -32.5 -193t-137.5 -192q-66 -72 -85 -112t-19 -108v-61h-236v70q0 95 29.5 166.5t107.5 154.5q76 83 95.5 128.5t19.5 114.5t-31 108.5t-94 39.5q-108 0 -227 -77l-94 200q158 107 348 107zM338 301q81 0 123.5 -43 t42.5 -120.5t-43.5 -121t-123 -43.5t-122.5 43t-43 121.5t42.5 121t123.5 42.5z" />
<glyph unicode="@" horiz-adv-x="1485" d="M724 -168q-193 0 -342 91.5t-229 263.5t-80 396v11q0 258 89 460.5t253.5 312.5t374.5 110q293 0 456.5 -191.5t163.5 -537.5q0 -244 -82.5 -380.5t-230.5 -136.5q-69 0 -121 38.5t-68 101.5h-8q-35 -65 -88.5 -102.5t-120.5 -37.5q-125 0 -193.5 94t-68.5 279 q0 222 98 356q99 134 265 134q120 0 256 -43l-21 -466v-38q0 -80 17 -112t55 -32q50 0 79 94.5t29 252.5q0 271 -109 409.5t-313 138.5q-150 0 -266 -88.5t-178.5 -247.5t-62.5 -358q0 -278 122 -436q123 -156 338 -156q177 0 365 90v-182q-164 -88 -367 -88h-12zM781 922 q-64 0 -104.5 -89.5t-40.5 -228.5q0 -96 22.5 -148.5t68.5 -52.5t70.5 66.5t32.5 212.5l13 229q-25 11 -62 11z" />
<glyph unicode="A" horiz-adv-x="1094" d="M1094 0h-273l-84 369h-381l-84 -369h-272l362 1468h369zM686 610l-78 340q-2 8 -29.5 146.5t-31.5 175.5q-14 -92 -32 -185t-105 -477h276z" />
<glyph unicode="B" horiz-adv-x="1038" d="M129 1462h373q228 0 332 -88.5t104 -281.5q0 -128 -55 -213t-150 -103v-10q122 -30 178 -114.5t56 -227.5q0 -199 -106.5 -311.5t-291.5 -112.5h-440v1462zM385 1227v-353h125q84 0 120 44.5t36 136.5t-39.5 132t-126.5 40h-115zM385 647v-409h137q85 0 126.5 52.5 t41.5 160.5q0 196 -172 196h-133z" />
<glyph unicode="C" horiz-adv-x="948" d="M596 -20q-247 0 -380 196q-132 196 -132 552.5t136 555.5t380 199q159 0 311 -99l-90 -221q-57 39 -105 60.5t-102 21.5q-117 0 -184.5 -136t-67.5 -382q0 -508 265 -508q115 0 243 74v-242q-107 -71 -274 -71z" />
<glyph unicode="D" horiz-adv-x="1143" d="M129 1462h391q254 0 396.5 -188t142.5 -540t-147.5 -543t-424.5 -191h-358v1462zM401 1227v-989h88q148 0 219.5 124t71.5 375q0 490 -270 490h-109z" />
<glyph unicode="E" horiz-adv-x="872" d="M788 1227h-387v-348h359v-236h-359v-405h387v-238h-659v1462h659v-235z" />
<glyph unicode="F" horiz-adv-x="838" d="M784 1227h-385v-406h359v-235h-359v-586h-270v1462h655v-235z" />
<glyph unicode="G" horiz-adv-x="1112" d="M1018 811v-750q-190 -81 -404 -81q-255 0 -393 194q-137 194 -137 552.5t157 557.5t441 199q175 0 334 -90l-86 -222q-125 72 -232 72q-155 0 -245.5 -138.5t-90.5 -381.5t65.5 -373.5t190.5 -130.5q64 0 134 17v335h-181v240h447z" />
<glyph unicode="H" horiz-adv-x="1161" d="M1032 0h-272v641h-359v-641h-272v1462h272v-581h359v581h272v-1462z" />
<glyph unicode="I" horiz-adv-x="614" d="M434 0h-256v1462h256v-1462z" />
<glyph unicode="J" horiz-adv-x="530" d="M401 1462v-1417v-11q0 -205 -106.5 -330.5t-275.5 -125.5h-5q-108 0 -168 25v237q66 -20 123 -20q82 0 121 52.5t39 158.5v1431h272z" />
<glyph unicode="K" horiz-adv-x="1040" d="M401 0h-272v1462h272v-725l95 219l249 506h291l-338 -633l342 -829h-290l-240 625l-109 -109v-516z" />
<glyph unicode="L" horiz-adv-x="823" d="M401 238h377v-238h-649v1462h272v-1224z" />
<glyph unicode="M" horiz-adv-x="1606" d="M1477 0h-258v991q0 118 14 252h-8l-277 -1243h-297l-278 1245h-11q19 -140 19 -264v-981h-252v1462h418l250 -1149h8l248 1149h424v-1462z" />
<glyph unicode="N" horiz-adv-x="1282" d="M1153 0h-332l-452 1059h-13q25 -119 25 -260v-799h-252v1462h334l448 -1048h11q-19 102 -19 250v798h250v-1462z" />
<glyph unicode="O" horiz-adv-x="1219" d="M220 174q-136 194 -136 559t136.5 558.5t390.5 193.5t389 -194.5t135 -558t-136.5 -558t-389 -194.5t-389.5 194zM612 1245q-123 0 -186.5 -130t-63.5 -381t63 -382t185 -131q246 0 246 512t-244 512z" />
<glyph unicode="P" horiz-adv-x="980" d="M129 1462h371q426 0 426 -450q0 -233 -117.5 -357.5t-339.5 -124.5h-68v-530h-272v1462zM401 1227v-461h52q101 0 149.5 55.5t48.5 175t-45 175t-139 55.5h-66z" />
<glyph unicode="Q" horiz-adv-x="1219" d="M610 -20q-253 0 -390 194q-136 194 -136 559t136.5 558.5t390.5 193.5t389 -194.5t135 -557.5q0 -510 -263 -682l269 -399h-314l-202 328h-15zM612 1245q-123 0 -186.5 -130t-63.5 -381t63 -382t185 -131q246 0 246 512t-244 512z" />
<glyph unicode="R" horiz-adv-x="1024" d="M129 1462h356q225 0 333 -107t108 -327q0 -278 -187 -387l281 -641h-291l-231 569h-97v-569h-272v1462zM401 1227v-424h70q94 0 137 53.5t43 163.5t-44 158.5t-138 48.5h-68z" />
<glyph unicode="S" horiz-adv-x="846" d="M369 217q77 0 117 42t40 116t-46.5 135t-146 129t-152.5 130q-48 60 -74.5 134.5t-26.5 171.5q0 188 104 298q105 110 277.5 110t326.5 -94l-90 -218q-125 72 -213 72q-65 0 -101 -43t-36 -117.5t42 -130.5q43 -55 149 -125q145 -97 199 -196q57 -101 57 -228 q0 -205 -103.5 -314t-296.5 -109t-327 75v269q164 -107 301 -107z" />
<glyph unicode="T" horiz-adv-x="885" d="M858 1223h-280v-1223h-271v1223h-280v239h831v-239z" />
<glyph unicode="U" horiz-adv-x="1151" d="M1028 1462v-946q0 -261 -118 -398.5t-339 -137.5t-334.5 137t-113.5 403v942h270v-962q0 -279 185 -279q86 0 133 71t47 202v968h270z" />
<glyph unicode="V" horiz-adv-x="1032" d="M688 0h-346l-342 1462h274l191 -893q25 -114 51 -327q20 177 53 327l189 893h274z" />
<glyph unicode="W" horiz-adv-x="1622" d="M1341 0h-340l-143 766q-34 161 -47 371l-8 -74l-41 -301l-139 -762h-340l-265 1462h267l131 -825q20 -128 51 -389q26 277 47 383l156 831h282l156 -831q30 -177 49 -385q35 299 51 391l127 825h269z" />
<glyph unicode="X" horiz-adv-x="968" d="M635 748l334 -748h-283l-209 524l-194 -524h-283l334 760l-309 702h274l193 -481l167 481h285z" />
<glyph unicode="Y" horiz-adv-x="961" d="M614 0h-268v575l-346 887h287l194 -577l195 577h285l-347 -876v-586z" />
<glyph unicode="Z" horiz-adv-x="877" d="M834 238v-238h-791v190l467 1035h-453v237h762v-190l-467 -1034h482z" />
<glyph unicode="[" horiz-adv-x="649" d="M602 1264h-223v-1389h223v-199h-469v1786h469v-198z" />
<glyph unicode="\" horiz-adv-x="829" d="M817 0h-258l-545 1462h258z" />
<glyph unicode="]" horiz-adv-x="649" d="M516 -324h-469v199h223v1389h-223v198h469v-1786z" />
<glyph unicode="^" horiz-adv-x="1090" d="M1079 526h-225l-330 660l-288 -660h-222l437 944h135z" />
<glyph unicode="_" horiz-adv-x="696" d="M700 -324h-704v140h704v-140z" />
<glyph unicode="`" horiz-adv-x="1114" d="M311 1569h318q25 -55 80 -156q55 -96 92 -145v-27h-187q-80 64 -179.5 163.5t-123.5 143.5v21z" />
<glyph unicode="a" horiz-adv-x="956" d="M131 1032q166 105 351.5 105t278.5 -101t93 -288v-748h-195l-53 152h-6q-58 -97 -121 -134.5t-160 -37.5q-123 0 -193.5 91.5t-70.5 261t95.5 256t289.5 95.5l148 6v80q0 156 -135 156q-99 0 -230 -78zM330 326q0 -138 98 -138q73 0 116.5 65.5t43.5 174.5v94l-82 -4 q-91 -5 -133.5 -52t-42.5 -140z" />
<glyph unicode="b" horiz-adv-x="1016" d="M379 1192q0 -44 -14 -223h14q47 90 103.5 128t133.5 38q152 0 239 -151t87 -426.5t-87.5 -426.5t-242.5 -151q-77 0 -134 33.5t-107 113.5h-17l-45 -127h-196v1556h266v-364zM379 561q0 -195 34 -273.5t113 -78.5q144 0 144 350t-146 350q-75 0 -110 -71 q-34 -72 -35 -250v-27z" />
<glyph unicode="c" horiz-adv-x="760" d="M481 -20q-199 0 -303 145t-104 433t99 432.5t304 144.5q140 0 252 -70l-76 -207q-82 49 -147 49q-84 0 -122 -87t-38 -265t37.5 -262t120.5 -84q100 0 209 70v-234q-106 -65 -232 -65z" />
<glyph unicode="d" horiz-adv-x="1016" d="M905 0h-198l-45 145h-9q-85 -165 -243 -165t-247 152t-89 423t87 425.5t240 154.5q77 0 132 -38t102 -126h16q-12 151 -12 213v372h266v-1556zM637 553q0 192 -34.5 272t-113.5 80q-141 0 -141 -354q0 -175 34.5 -260.5t109 -85.5t108.5 66.5t37 246.5v35z" />
<glyph unicode="e" horiz-adv-x="942" d="M524 -20q-209 0 -330 148q-120 148 -120 423t109.5 429.5t297.5 154.5t293 -132.5t105 -371.5v-142h-535q3 -147 60 -220.5t161 -73.5q129 0 266 81v-219q-128 -77 -307 -77zM581 866.5q-35 63.5 -95 63.5t-96 -62.5t-42 -185.5h270q-2 121 -37 184.5z" />
<glyph unicode="f" horiz-adv-x="612" d="M158 1200q0 188 78 277.5t247 89.5q108 0 201 -45l-70 -203q-50 24 -99 24t-70 -36t-21 -111v-82h184v-211h-184v-903h-266v903h-129v133l129 80v84z" />
<glyph unicode="g" horiz-adv-x="936" d="M451 221h161q143 0 219 -77.5t76 -229.5q0 -195 -130.5 -300.5t-373.5 -105.5q-185 0 -285 80.5t-100 229.5q0 93 57 163.5t158 102.5q-53 21 -84.5 63t-31.5 100.5t38 109.5q19 25 76 73q-68 42 -108.5 128.5t-40.5 193.5q0 184 96 283.5t275 99.5q32 0 78 -8t67 -15 h317v-156l-133 -30q39 -70 39 -176q0 -176 -96 -276.5t-268 -100.5q-48 0 -74 8q-17 -16 -26 -25.5t-18 -27.5t-9 -37q0 -70 121 -70zM453 956q-111 0 -111 -201.5t111 -201.5q108 0 108 201.5t-108 201.5zM508 -12h-129q-54 0 -86.5 -40.5t-32.5 -108t41.5 -103 t118.5 -35.5q119 0 180.5 45t61.5 127q0 63 -32.5 89t-121.5 26z" />
<glyph unicode="h" horiz-adv-x="1038" d="M379 1556v-346q0 -66 -12 -239h14q80 164 246 164q153 0 231 -103.5t78 -304.5v-727h-268v664q0 245 -123 245q-89 0 -127.5 -93t-38.5 -281v-535h-266v1556h266z" />
<glyph unicode="i" horiz-adv-x="496" d="M142.5 1509.5q38.5 38.5 105.5 38.5t106 -38.5t39 -105t-39.5 -104.5t-105 -38t-105 38t-39.5 104.5t38.5 105zM381 0h-266v1114h266v-1114z" />
<glyph unicode="j" horiz-adv-x="500" d="M149.5 1509.5q38.5 38.5 105.5 38.5t105.5 -38.5t38.5 -104.5t-38.5 -104.5t-104.5 -38.5t-105.5 37.5t-39.5 104.5t38.5 105.5zM387 1114v-1243q0 -174 -80.5 -268.5t-226.5 -94.5q-85 0 -139 25v221q47 -18 86 -18q94 0 94 170v1208h266z" />
<glyph unicode="k" horiz-adv-x="965" d="M379 0h-266v1556h266v-733l-12 -223h8l67 133l220 381h282l-282 -457l301 -657h-279l-201 471l-104 -94v-377z" />
<glyph unicode="l" horiz-adv-x="489" d="M379 0h-266v1556h266v-1556z" />
<glyph unicode="m" horiz-adv-x="1589" d="M1186 1135q148 0 224.5 -104t76.5 -304v-727h-268v664q0 245 -121 245q-87 0 -125.5 -87t-38.5 -281v-541h-268v664q0 245 -123 245q-86 0 -125 -87t-39 -287v-535h-266v1114h211l32 -143h17q38 82 106.5 123t151.5 41q205 0 272 -193h10q85 193 273 193z" />
<glyph unicode="n" horiz-adv-x="1038" d="M633 1135q303 0 303 -408v-727h-268v664q0 123 -29.5 184t-93.5 61q-85 0 -125.5 -85t-40.5 -289v-535h-266v1114h211l32 -143h17q36 78 103.5 121t156.5 43z" />
<glyph unicode="o" horiz-adv-x="1012" d="M73 559q0 272 115 424t316 152t316 -156q117 -155 117 -424t-116 -423q-116 -152 -318 -152h-7q-188 0 -305.5 156.5t-117.5 409.5v13zM505 907q-83 0 -121.5 -85.5t-38.5 -262.5t38.5 -264.5t121.5 -87.5q160 0 160 352q0 176 -38.5 262t-121.5 86z" />
<glyph unicode="p" horiz-adv-x="1016" d="M377 969q82 166 238 166t241.5 -151t85.5 -423t-88.5 -426.5t-243.5 -154.5q-74 0 -129 33.5t-102 113.5h-14q16 -132 16 -164v-455h-268v1606h206l46 -145h12zM379 561q0 -185 35.5 -268.5t115.5 -83.5q140 0 140 350t-142 350q-78 0 -112.5 -72.5t-36.5 -240.5v-35z " />
<glyph unicode="q" horiz-adv-x="1016" d="M406 -20q-155 0 -243.5 151.5t-88.5 423.5t86 426q87 154 239 154q79 0 136 -38.5t102 -125.5h14l29 143h225v-1606h-266v469q0 36 12 168h-10q-80 -165 -235 -165zM637 553q0 185 -35 268.5t-115 83.5q-139 0 -139 -354q0 -178 33.5 -263t109 -85t110.5 74t36 239v37z " />
<glyph unicode="r" horiz-adv-x="690" d="M588 1135q50 0 96 -15l-31 -258q-27 10 -73 10q-97 0 -149 -76.5t-52 -222.5v-573h-266v1114h219l30 -174h9q44 104 95.5 149.5t121.5 45.5z" />
<glyph unicode="s" horiz-adv-x="766" d="M61 276q57 -38 128.5 -63t131 -25t92.5 30t33 81.5t-35 89.5t-124 92q-120 72 -173 153.5t-53 192.5q0 143 97.5 225.5t256.5 82.5t290 -78l-87 -191q-106 58 -188 58q-49 0 -75.5 -26t-26.5 -69.5t30.5 -77t126.5 -92t138 -102.5q88 -92 88 -231q0 -165 -96.5 -255.5 t-270.5 -90.5t-283 65v231z" />
<glyph unicode="t" horiz-adv-x="664" d="M410 1114h202v-211h-202v-586q0 -112 90 -112q58 0 121 28v-208q-65 -45 -195 -45q-285 0 -285 346v577h-108v119l139 96l68 236h170v-240z" />
<glyph unicode="u" horiz-adv-x="1038" d="M928 0h-213l-33 143h-14q-37 -76 -106 -119.5t-156 -43.5q-304 0 -304 407v727h269v-663q0 -124 29.5 -185t93.5 -61q86 0 125 86q40 84 40 289v534h269v-1114z" />
<glyph unicode="v" horiz-adv-x="913" d="M621 0h-330l-291 1114h276l142 -645q9 -45 21 -127.5t16 -128.5h4q3 58 24 189q5 33 154 712h276z" />
<glyph unicode="w" horiz-adv-x="1479" d="M1235 0h-346l-111 647l-39 273h-4q-15 -132 -26 -206t-125 -714h-342l-222 1114h267l102 -614q18 -102 33 -299h6q2 94 31 301l110 612h342l109 -614q19 -97 33 -299h4q13 174 35 299l106 614h260z" />
<glyph unicode="x" horiz-adv-x="889" d="M582 569l292 -569h-278l-158 356l-147 -356h-277l291 569l-278 545h276l148 -340l137 340h274z" />
<glyph unicode="y" horiz-adv-x="913" d="M184 -492q-78 0 -141 17v223q40 -12 92 -12q134 0 176 176l19 70l-330 1132h276l154 -629q24 -90 37 -235h6q1 23 9 85l13 97q5 37 138 682h280l-319 -1194q-59 -221 -154.5 -316.5t-255.5 -95.5z" />
<glyph unicode="z" horiz-adv-x="731" d="M690 215v-215h-649v170l342 729h-320v215h613v-188l-332 -711h346z" />
<glyph unicode="{" horiz-adv-x="737" d="M530 1106v-303q-3 -193 -231 -228v-12q231 -35 231 -215v-315q0 -73 37 -108t138 -38v-211q-121 2 -198.5 15.5t-128 47t-72 86t-23.5 134.5v317q0 96 -65 138.5t-193 42.5v223q128 0 193 41t65 131v328q2 159 93.5 218.5t328.5 63.5v-211q-100 -3 -137.5 -37.5 t-37.5 -107.5z" />
<glyph unicode="|" horiz-adv-x="1038" d="M623 -471h-207v2023h207v-2023z" />
<glyph unicode="}" horiz-adv-x="737" d="M33 1462q235 0 329.5 -63.5t94.5 -218.5v-328q0 -90 64 -131t192 -41v-223q-129 0 -192.5 -42.5t-63.5 -138.5v-317q0 -156 -96 -219q-94 -64 -328 -64v211q101 3 138.5 37.5t37.5 108.5v312q0 90 59.5 145.5t173.5 72.5v12q-228 34 -233 228v303q0 74 -37 108t-139 37 v211z" />
<glyph unicode="~" horiz-adv-x="918" d="M637 559q-84 0 -207 64q-82 41 -107 48t-59 7q-88 0 -190 -121v219q90 109 207 109q41 0 82.5 -11.5t115 -49.5t104.5 -48t74 -10q87 0 187 121v-219q-81 -109 -207 -109z" />
<glyph unicode="&#xa1;" horiz-adv-x="555" d="M154.5 1075q43.5 43 122 43t122 -43t43.5 -121.5t-43 -120.5t-123 -42t-122.5 42t-42.5 120.5t43.5 121.5zM436 -369h-323l51 990h221z" />
<glyph unicode="&#xa2;" horiz-adv-x="948" d="M612 1479v-160q106 -16 193 -66l-78 -209q-86 50 -147 50q-84 0 -122 -86.5t-38 -264.5t37.5 -263t120.5 -85q100 0 208 72v-234q-78 -51 -174 -61v-192h-166v200q-299 80 -299 557q0 253 73.5 395.5t225.5 178.5v168h166z" />
<glyph unicode="&#xa3;" horiz-adv-x="948" d="M233 854v219q0 199 93.5 304.5t271.5 105.5q157 0 283 -72l-84 -211q-92 53 -183 53q-114 0 -114 -186v-213h241v-203h-241v-133q0 -182 -131 -276h534v-242h-827v229q93 50 125 109t32 156v157h-155v203h155z" />
<glyph unicode="&#xa4;" horiz-adv-x="1112" d="M893 926q55 -92 55 -205t-55 -201l125 -125l-135 -135l-129 125q-94 -53 -206.5 -53t-195.5 53l-125 -123l-135 135l127 125q-57 92 -57 197.5t57 204.5l-129 127l137 137l127 -127q92 55 200 55t200 -57l129 129l139 -133zM699 865q-59 59 -143 59t-142 -58t-58 -142 t58 -142t142.5 -58t143 58.5t58.5 141t-59 141.5z" />
<glyph unicode="&#xa5;" horiz-adv-x="948" d="M852 711v-170h-244v-142h244v-170h-244v-229h-266v229h-246v170h246v142h-246v170h187l-277 751h283l186 -618l184 618h283l-276 -751h186z" />
<glyph unicode="&#xa6;" horiz-adv-x="1038" d="M623 743h-207v809h207v-809zM623 -471h-207v809h207v-809z" />
<glyph unicode="&#xa7;" horiz-adv-x="872" d="M377 143q82 0 121 28.5t39 90.5q0 34 -31 66.5t-103 73.5q-140 78 -195 128q-114 104 -114 246q0 78 34 142t95 104q-59 39 -91 105t-32 143q0 133 92 211q93 78 250.5 78t329.5 -70l-65 -184q-55 23 -87 35.5t-81.5 24t-100 11.5t-79.5 -27.5t-29 -69.5t31.5 -76 t103.5 -75l84 -49q124 -70 176.5 -148t52.5 -179q0 -167 -125 -260q59 -43 87 -92t28 -119q0 -149 -95 -232.5t-270 -83.5q-202 0 -321 58v192q152 -72 295 -72zM514 580q43 61 43 130q0 134 -184 224q-28 -17 -47 -54t-19 -88t31.5 -88.5t114.5 -87.5z" />
<glyph unicode="&#xa8;" horiz-adv-x="1130" d="M365 1532q62 0 97.5 -35.5t35.5 -93.5t-35.5 -92.5t-97.5 -34.5t-97 33.5t-35 94t35 94.5t97 34zM666 1497.5q35 34.5 97 34.5t98 -34.5t36 -94t-35.5 -93.5t-97.5 -34t-97.5 34.5t-35.5 93.5t35 93.5z" />
<glyph unicode="&#xa9;" horiz-adv-x="1688" d="M462 83q-175 103 -272.5 276t-97.5 372.5t100.5 375t275.5 276t374.5 100.5t373 -98t276.5 -272.5t103 -380t-100.5 -378t-273.5 -273.5t-378.5 -101t-380.5 103zM844 115q167 0 309.5 82.5t224.5 224.5t82 308.5t-82.5 309.5t-225 225.5t-307.5 82.5t-309.5 -83 t-226.5 -225t-82 -307.5t82.5 -309t225 -226t309.5 -82.5zM881 264q-201 0 -313 123q-111 125 -111 345t110 342t307 122q141 0 295 -74l-71 -161q-111 57 -212 57t-156.5 -75.5t-55.5 -215.5t51 -212.5t162 -72.5q59 0 126 16.5t113 41.5v-181q-114 -55 -245 -55z" />
<glyph unicode="&#xaa;" horiz-adv-x="682" d="M96 1401q128 78 249.5 78t181 -68t59.5 -194v-447h-117l-27 104q-68 -116 -190 -116q-92 0 -143.5 54.5t-51.5 163.5t66.5 162.5t212.5 61.5l82 4v8q0 119 -103 119q-68 0 -163 -57zM229 979q0 -78 64 -78q58 0 91.5 40.5t33.5 111.5v39l-72 -7q-59 -5 -88 -30.5 t-29 -75.5z" />
<glyph unicode="&#xab;" horiz-adv-x="1141" d="M580 905l-220 -348l220 -348l-199 -111l-307 445v26l307 447zM1067 905l-219 -348l219 -348l-199 -111l-307 445v26l307 447z" />
<glyph unicode="&#xac;" horiz-adv-x="918" d="M811 250h-195v368h-510v207h705v-575z" />
<glyph unicode="&#xad;" horiz-adv-x="647" d="M575 432h-503v234h503v-234z" />
<glyph unicode="&#xae;" horiz-adv-x="1688" d="M462 83q-175 103 -272.5 276t-97.5 372.5t100.5 375t275.5 276t374.5 100.5t373 -98t276.5 -272.5t103 -380t-100.5 -378t-273.5 -273.5t-378.5 -101t-380.5 103zM844 115q167 0 309.5 82.5t224.5 224.5t82 308.5t-82.5 309.5t-225 225.5t-307.5 82.5t-309.5 -83 t-226.5 -225t-82 -307.5t82.5 -309t225 -226t309.5 -82.5zM543 1186h258q179 0 262.5 -67.5t83.5 -211.5q0 -170 -148 -233l19 -29l219 -371h-238l-184 342h-57v-342h-215v912zM758 1024v-248h39q71 0 102 29.5t31 97.5t-32 94.5t-103 26.5h-37z" />
<glyph unicode="&#xaf;" horiz-adv-x="1024" d="M1030 1556h-1036v189h1036v-189z" />
<glyph unicode="&#xb0;" horiz-adv-x="831" d="M174 903q-98 100 -98 239.5t99 240t239.5 100.5t241 -100.5t100.5 -240.5t-99 -239q-100 -98 -241.5 -98t-241.5 98zM530 1028q48 48 48 115.5t-47 115.5t-114.5 48t-116.5 -49q-48 -50 -48 -116t49 -114q50 -47 115 -47t114 47z" />
<glyph unicode="&#xb1;" horiz-adv-x="918" d="M557 825h254v-207h-254v-368h-197v368h-254v207h254v373h197v-373zM811 0h-705v207h705v-207z" />
<glyph unicode="&#xb2;" horiz-adv-x="688" d="M338 1483q122 0 191 -66.5t69 -183.5q0 -81 -37 -152t-162 -202l-102 -107h326v-186h-570v157l199 222q96 108 122.5 153.5t26.5 92.5t-23.5 70.5t-62.5 23.5q-75 0 -163 -88l-103 139q127 127 289 127z" />
<glyph unicode="&#xb3;" horiz-adv-x="688" d="M334 1481q112 0 182 -63q72 -62 72 -167q0 -149 -148 -200v-11q86 -20 130 -76.5t44 -132.5q0 -123 -79 -192.5t-231 -69.5t-241 56v176q106 -72 230 -72q135 0 135 117q0 112 -154 112h-98v150h84q74 0 111 28t37 80q0 103 -95 103q-43 0 -81 -18t-89 -60l-86 133 q70 58 135.5 82.5t141.5 24.5z" />
<glyph unicode="&#xb4;" horiz-adv-x="1114" d="M801 1569v-21q-23 -41 -116 -135t-187 -172h-187v27q40 52 95.5 152t76.5 149h318z" />
<glyph unicode="&#xb5;" horiz-adv-x="1038" d="M928 0h-213l-33 143h-16q-63 -163 -199 -163q-59 0 -105 40q9 -131 9 -272v-240h-269v1606h269v-700q0 -112 29.5 -160.5t93.5 -48.5q86 0 125 86q40 84 40 289v534h269v-1114z" />
<glyph unicode="&#xb6;" horiz-adv-x="1083" d="M948 -260h-153v1624h-162v-1624h-154v819q-45 -18 -106 -18q-159 0 -234.5 124t-75.5 380.5t81.5 383.5t254.5 127h549v-1816z" />
<glyph unicode="&#xb7;" horiz-adv-x="553" d="M276 887q81 0 123.5 -42.5t42.5 -121t-43.5 -121.5t-123 -43t-122 43t-42.5 121.5t42 121t123 42.5z" />
<glyph unicode="&#xb8;" horiz-adv-x="416" d="M397 -260q0 -110 -72.5 -171t-218.5 -61q-72 0 -131 21v154q63 -17 121 -17q88 0 88 66q0 85 -157 110l79 158h173l-37 -76q71 -18 113 -65t42 -119z" />
<glyph unicode="&#xb9;" horiz-adv-x="688" d="M500 586h-197v461l3 112l5 96q-8 -12 -22 -24l-131 -113l-92 117l272 227h162v-876z" />
<glyph unicode="&#xba;" horiz-adv-x="686" d="M136 856q-75 99 -75 266.5t75 262t205.5 94.5t207 -97t76.5 -265.5t-76.5 -263.5t-206 -95t-206.5 98zM344 1325q-57 0 -84 -49.5t-27 -155.5q0 -209 111 -209q57 0 83 51t26 157.5t-26 156t-83 49.5z" />
<glyph unicode="&#xbb;" horiz-adv-x="1141" d="M580 569v-26l-308 -445l-198 111l219 348l-219 348l198 111zM1067 569v-26l-307 -445l-199 111l219 348l-219 348l199 111z" />
<glyph unicode="&#xbc;" horiz-adv-x="1597" d="M493 586h-197v461l3 112l5 96q-8 -12 -22 -24l-131 -113l-92 117l272 227h162v-876zM479 0h-203l742 1462h204zM1370 320h111v-160h-111v-159h-196v159h-345v146l347 577h194v-563zM1174 320v170l4 187q-10 -27 -35 -83.5t-35 -72.5l-121 -201h187z" />
<glyph unicode="&#xbd;" horiz-adv-x="1597" d="M493 586h-197v461l3 112l5 96q-8 -12 -22 -24l-131 -113l-92 117l272 227h162v-876zM479 0h-203l742 1462h204zM1233 898q122 0 191 -66.5t69 -183.5q0 -80 -37 -151.5t-162 -202.5l-102 -107h326v-186h-570v157l199 222q96 108 122.5 154t26.5 93t-23 70t-63 23 q-75 0 -163 -88l-103 139q127 127 289 127z" />
<glyph unicode="&#xbe;" horiz-adv-x="1597" d="M338 1481q112 0 182 -63q72 -62 72 -167q0 -149 -148 -200v-11q86 -20 130 -76.5t44 -132.5q0 -123 -79 -192.5t-231 -69.5t-241 56v176q107 -72 230 -72q135 0 135 117q0 112 -154 112h-98v150h84q74 0 111 28t37 80q0 103 -95 103q-43 0 -81 -18t-89 -60l-86 133 q70 58 135.5 82.5t141.5 24.5zM514 0h-203l742 1462h204zM1376 320h111v-160h-111v-159h-196v159h-345v146l347 577h194v-563zM1180 320v170l4 187q-10 -27 -35 -83.5t-35 -72.5l-121 -201h187z" />
<glyph unicode="&#xbf;" horiz-adv-x="782" d="M322.5 1075q43.5 43 122 43t122 -43t43.5 -121.5t-43 -120.5t-123 -42t-122.5 42t-42.5 120.5t43.5 121.5zM563 621v-72q0 -94 -29 -165t-106 -155.5t-97 -130.5t-20 -113t32 -107t93 -40q109 0 226 78l96 -201q-157 -106 -348 -106q-168 0 -262.5 90.5t-94.5 255.5 q0 144 58 243q30 53 103.5 132t93.5 121.5t20 107.5v62h235z" />
<glyph unicode="&#xc0;" horiz-adv-x="1094" d="M193 1907h318q25 -55 80 -156q55 -96 92 -145v-27h-187q-80 64 -179.5 163.5t-123.5 143.5v21zM1094 0h-273l-84 369h-381l-84 -369h-272l362 1468h369zM686 610l-78 340q-2 8 -29.5 146.5t-31.5 175.5q-14 -92 -32 -185t-105 -477h276z" />
<glyph unicode="&#xc1;" horiz-adv-x="1094" d="M895 1907v-21q-23 -41 -116 -135t-187 -172h-187v27q40 52 95.5 152t76.5 149h318zM1094 0h-273l-84 369h-381l-84 -369h-272l362 1468h369zM686 610l-78 340q-2 8 -29.5 146.5t-31.5 175.5q-14 -92 -32 -185t-105 -477h276z" />
<glyph unicode="&#xc2;" horiz-adv-x="1094" d="M903 1579h-168q-97 73 -189 178q-87 -99 -186 -178h-168v27q176 223 217 301h277q44 -82 217 -301v-27zM1094 0h-273l-84 369h-381l-84 -369h-272l362 1468h369zM686 610l-78 340q-2 8 -29.5 146.5t-31.5 175.5q-14 -92 -32 -185t-105 -477h276z" />
<glyph unicode="&#xc3;" horiz-adv-x="1094" d="M685 1579q-40 0 -78.5 16.5t-64.5 36.5q-66 54 -113 54q-32 0 -50.5 -24.5t-27.5 -84.5h-141q11 150 67.5 225.5t151.5 75.5q39 0 77.5 -16.5t64.5 -36.5q69 -53 116 -53q32 0 48 24.5t28 83.5h141q-11 -149 -68.5 -225t-150.5 -76zM1094 0h-273l-84 369h-381l-84 -369 h-272l362 1468h369zM686 610l-78 340q-2 8 -29.5 146.5t-31.5 175.5q-14 -92 -32 -185t-105 -477h276z" />
<glyph unicode="&#xc4;" horiz-adv-x="1094" d="M348 1870q62 0 97.5 -35.5t35.5 -93.5t-35.5 -92.5t-97.5 -34.5t-97 33.5t-35 94t35 94.5t97 34zM649 1835.5q35 34.5 97 34.5t98 -34.5t36 -94t-35.5 -93.5t-97.5 -34t-97.5 34.5t-35.5 93.5t35 93.5zM1094 0h-273l-84 369h-381l-84 -369h-272l362 1468h369zM686 610 l-78 340q-2 8 -29.5 146.5t-31.5 175.5q-14 -92 -32 -185t-105 -477h276z" />
<glyph unicode="&#xc5;" horiz-adv-x="1094" d="M350 1418q-48 58 -48 159t67 163t176.5 62t180 -64.5t70.5 -162t-52 -158.5l350 -1417h-273l-84 369h-381l-84 -369h-272zM546 1669q-43 0 -71.5 -27.5t-28.5 -74t25.5 -73t72 -26.5t74.5 27.5t28 73t-28.5 73t-71.5 27.5zM686 610l-78 340q-2 8 -29.5 146.5t-31.5 175.5 q-14 -92 -32 -185t-105 -477h276z" />
<glyph unicode="&#xc6;" horiz-adv-x="1425" d="M1339 1227h-383v-348h355v-236h-355v-405h383v-238h-655v369h-299l-113 -369h-272l473 1462h866v-235zM684 610v617h-39l-184 -617h223z" />
<glyph unicode="&#xc7;" horiz-adv-x="948" d="M614 1245q-117 0 -184.5 -136t-67.5 -382q0 -508 265 -508q115 0 243 74v-242q-97 -65 -251 -71l-27 -56q71 -18 113 -65t42 -119q0 -110 -72.5 -171t-218.5 -61q-72 0 -131 21v154q63 -17 121 -17q88 0 88 66q0 85 -157 110l78 156q-146 42 -239 178 q-132 196 -132 552.5t136 555.5t380 199q159 0 311 -99l-90 -221q-57 39 -105 60.5t-102 21.5z" />
<glyph unicode="&#xc8;" horiz-adv-x="872" d="M89 1907h318q25 -55 80 -156q55 -96 92 -145v-27h-187q-80 64 -179.5 163.5t-123.5 143.5v21zM788 1227h-387v-348h359v-236h-359v-405h387v-238h-659v1462h659v-235z" />
<glyph unicode="&#xc9;" horiz-adv-x="872" d="M826 1907v-21q-23 -41 -116 -135t-187 -172h-187v27q40 52 95.5 152t76.5 149h318zM788 1227h-387v-348h359v-236h-359v-405h387v-238h-659v1462h659v-235z" />
<glyph unicode="&#xca;" horiz-adv-x="872" d="M814 1579h-168q-97 73 -189 178q-87 -99 -186 -178h-168v27q176 223 217 301h277q44 -82 217 -301v-27zM788 1227h-387v-348h359v-236h-359v-405h387v-238h-659v1462h659v-235z" />
<glyph unicode="&#xcb;" horiz-adv-x="872" d="M262 1870q62 0 97.5 -35.5t35.5 -93.5t-35.5 -92.5t-97.5 -34.5t-97 33.5t-35 94t35 94.5t97 34zM563 1835.5q35 34.5 97 34.5t98 -34.5t36 -94t-35.5 -93.5t-97.5 -34t-97.5 34.5t-35.5 93.5t35 93.5zM788 1227h-387v-348h359v-236h-359v-405h387v-238h-659v1462h659 v-235z" />
<glyph unicode="&#xcc;" horiz-adv-x="614" d="M-50 1907h318q25 -55 80 -156q55 -96 92 -145v-27h-187q-80 64 -179.5 163.5t-123.5 143.5v21zM434 0h-256v1462h256v-1462z" />
<glyph unicode="&#xcd;" horiz-adv-x="614" d="M657 1907v-21q-23 -41 -116 -135t-187 -172h-187v27q40 52 95.5 152t76.5 149h318zM434 0h-256v1462h256v-1462z" />
<glyph unicode="&#xce;" horiz-adv-x="614" d="M663 1579h-168q-97 73 -189 178q-87 -99 -186 -178h-168v27q176 223 217 301h277q44 -82 217 -301v-27zM434 0h-256v1462h256v-1462z" />
<glyph unicode="&#xcf;" horiz-adv-x="614" d="M108 1870q62 0 97.5 -35.5t35.5 -93.5t-35.5 -92.5t-97.5 -34.5t-97 33.5t-35 94t35 94.5t97 34zM409 1835.5q35 34.5 97 34.5t98 -34.5t36 -94t-35.5 -93.5t-97.5 -34t-97.5 34.5t-35.5 93.5t35 93.5zM434 0h-256v1462h256v-1462z" />
<glyph unicode="&#xd0;" horiz-adv-x="1143" d="M129 1462h391q254 0 396.5 -188t142.5 -540t-147.5 -543t-424.5 -191h-358v604h-129v238h129v620zM401 1227v-385h183v-238h-183v-366h88q148 0 219.5 124t71.5 375q0 490 -270 490h-109z" />
<glyph unicode="&#xd1;" horiz-adv-x="1282" d="M778 1579q-40 0 -78.5 16.5t-63.5 36.5q-67 54 -114 54q-32 0 -50.5 -24.5t-27.5 -84.5h-141q11 150 67.5 225.5t151.5 75.5q39 0 77.5 -16.5t64.5 -36.5q69 -53 116 -53q32 0 48 24.5t28 83.5h141q-11 -149 -68.5 -225t-150.5 -76zM1153 0h-332l-452 1059h-13 q25 -119 25 -260v-799h-252v1462h334l448 -1048h11q-19 102 -19 250v798h250v-1462z" />
<glyph unicode="&#xd2;" horiz-adv-x="1219" d="M244 1907h318q25 -55 80 -156q55 -96 92 -145v-27h-187q-80 64 -179.5 163.5t-123.5 143.5v21zM220 174q-136 194 -136 559t136.5 558.5t390.5 193.5t389 -194.5t135 -558t-136.5 -558t-389 -194.5t-389.5 194zM612 1245q-123 0 -186.5 -130t-63.5 -381t63 -382t185 -131 q246 0 246 512t-244 512z" />
<glyph unicode="&#xd3;" horiz-adv-x="1219" d="M967 1907v-21q-23 -41 -116 -135t-187 -172h-187v27q40 52 95.5 152t76.5 149h318zM220 174q-136 194 -136 559t136.5 558.5t390.5 193.5t389 -194.5t135 -558t-136.5 -558t-389 -194.5t-389.5 194zM612 1245q-123 0 -186.5 -130t-63.5 -381t63 -382t185 -131 q246 0 246 512t-244 512z" />
<glyph unicode="&#xd4;" horiz-adv-x="1219" d="M963 1579h-168q-97 73 -189 178q-87 -99 -186 -178h-168v27q176 223 217 301h277q44 -82 217 -301v-27zM220 174q-136 194 -136 559t136.5 558.5t390.5 193.5t389 -194.5t135 -558t-136.5 -558t-389 -194.5t-389.5 194zM612 1245q-123 0 -186.5 -130t-63.5 -381t63 -382 t185 -131q246 0 246 512t-244 512z" />
<glyph unicode="&#xd5;" horiz-adv-x="1219" d="M747 1579q-40 0 -78.5 16.5t-64.5 36.5q-66 54 -113 54q-32 0 -50.5 -24.5t-27.5 -84.5h-141q11 150 67.5 225.5t151.5 75.5q39 0 77.5 -16.5t64.5 -36.5q69 -53 116 -53q32 0 48 24.5t28 83.5h141q-11 -149 -68.5 -225t-150.5 -76zM220 174q-136 194 -136 559 t136.5 558.5t390.5 193.5t389 -194.5t135 -558t-136.5 -558t-389 -194.5t-389.5 194zM612 1245q-123 0 -186.5 -130t-63.5 -381t63 -382t185 -131q246 0 246 512t-244 512z" />
<glyph unicode="&#xd6;" horiz-adv-x="1219" d="M408 1870q62 0 97.5 -35.5t35.5 -93.5t-35.5 -92.5t-97.5 -34.5t-97 33.5t-35 94t35 94.5t97 34zM709 1835.5q35 34.5 97 34.5t98 -34.5t36 -94t-35.5 -93.5t-97.5 -34t-97.5 34.5t-35.5 93.5t35 93.5zM220 174q-136 194 -136 559t136.5 558.5t390.5 193.5t389 -194.5 t135 -558t-136.5 -558t-389 -194.5t-389.5 194zM612 1245q-123 0 -186.5 -130t-63.5 -381t63 -382t185 -131q246 0 246 512t-244 512z" />
<glyph unicode="&#xd7;" horiz-adv-x="918" d="M823 1053l-245 -330l245 -334l-151 -113l-215 289l-213 -289l-152 113l246 334l-246 330l152 112l213 -282l215 282z" />
<glyph unicode="&#xd8;" horiz-adv-x="1219" d="M1001 1286q134 -193 134 -555t-136.5 -556.5t-388.5 -194.5q-134 0 -241 57l-70 -139l-166 77l96 187q-145 193 -145 564.5t136.5 565t391.5 193.5q136 0 252 -68l72 142l166 -76zM612 1245q-123 0 -186.5 -130t-63.5 -382q0 -158 21 -266l371 729q-52 49 -142 49z M610 221q246 0 246 512q0 152 -12 236l-363 -709q48 -39 129 -39z" />
<glyph unicode="&#xd9;" horiz-adv-x="1151" d="M210 1907h318q25 -55 80 -156q55 -96 92 -145v-27h-187q-80 64 -179.5 163.5t-123.5 143.5v21zM1028 1462v-946q0 -261 -118 -398.5t-339 -137.5t-334.5 137t-113.5 403v942h270v-962q0 -279 185 -279q86 0 133 71t47 202v968h270z" />
<glyph unicode="&#xda;" horiz-adv-x="1151" d="M934 1907v-21q-23 -41 -116 -135t-187 -172h-187v27q40 52 95.5 152t76.5 149h318zM1028 1462v-946q0 -261 -118 -398.5t-339 -137.5t-334.5 137t-113.5 403v942h270v-962q0 -279 185 -279q86 0 133 71t47 202v968h270z" />
<glyph unicode="&#xdb;" horiz-adv-x="1151" d="M930 1579h-168q-97 73 -189 178q-87 -99 -186 -178h-168v27q176 223 217 301h277q44 -82 217 -301v-27zM1028 1462v-946q0 -261 -118 -398.5t-339 -137.5t-334.5 137t-113.5 403v942h270v-962q0 -279 185 -279q86 0 133 71t47 202v968h270z" />
<glyph unicode="&#xdc;" horiz-adv-x="1151" d="M375 1870q62 0 97.5 -35.5t35.5 -93.5t-35.5 -92.5t-97.5 -34.5t-97 33.5t-35 94t35 94.5t97 34zM676 1835.5q35 34.5 97 34.5t98 -34.5t36 -94t-35.5 -93.5t-97.5 -34t-97.5 34.5t-35.5 93.5t35 93.5zM1028 1462v-946q0 -261 -118 -398.5t-339 -137.5t-334.5 137 t-113.5 403v942h270v-962q0 -279 185 -279q86 0 133 71t47 202v968h270z" />
<glyph unicode="&#xdd;" horiz-adv-x="961" d="M836 1907v-21q-23 -41 -116 -135t-187 -172h-187v27q40 52 95.5 152t76.5 149h318zM614 0h-268v575l-346 887h287l194 -577l195 577h285l-347 -876v-586z" />
<glyph unicode="&#xde;" horiz-adv-x="980" d="M401 1229h97q428 0 428 -451q0 -234 -117.5 -358.5t-339.5 -124.5h-68v-295h-272v1462h272v-233zM401 995v-465h52q101 0 149.5 57t48.5 181q0 227 -182 227h-68z" />
<glyph unicode="&#xdf;" horiz-adv-x="1108" d="M113 0v1151q0 201 112 308.5t314.5 107.5t313 -85.5t110.5 -236.5t-106 -263l-51 -53q-56 -59 -56 -93.5t26 -68.5q28 -34 125 -112.5t130.5 -148t33.5 -168.5q0 -169 -100.5 -263.5t-282.5 -94.5q-139 0 -231 53v225q104 -70 208 -70q134 0 134 129q0 54 -27.5 95.5 t-114.5 109.5q-89 67 -128 129q-38 64 -38 137t24.5 124t80 105.5t79.5 95.5q23 41 23 87q0 69 -39 107.5t-112 38.5q-162 0 -162 -203v-1143h-266z" />
<glyph unicode="&#xe0;" horiz-adv-x="956" d="M146 1569h318q25 -55 80 -156q55 -96 92 -145v-27h-187q-80 64 -179.5 163.5t-123.5 143.5v21zM131 1032q166 105 351.5 105t278.5 -101t93 -288v-748h-195l-53 152h-6q-58 -97 -121 -134.5t-160 -37.5q-123 0 -193.5 91.5t-70.5 261t95.5 256t289.5 95.5l148 6v80 q0 156 -135 156q-99 0 -230 -78zM330 326q0 -138 98 -138q73 0 116.5 65.5t43.5 174.5v94l-82 -4q-91 -5 -133.5 -52t-42.5 -140z" />
<glyph unicode="&#xe1;" horiz-adv-x="956" d="M852 1569v-21q-23 -41 -116 -135t-187 -172h-187v27q40 52 95.5 152t76.5 149h318zM131 1032q166 105 351.5 105t278.5 -101t93 -288v-748h-195l-53 152h-6q-58 -97 -121 -134.5t-160 -37.5q-123 0 -193.5 91.5t-70.5 261t95.5 256t289.5 95.5l148 6v80q0 156 -135 156 q-99 0 -230 -78zM330 326q0 -138 98 -138q73 0 116.5 65.5t43.5 174.5v94l-82 -4q-91 -5 -133.5 -52t-42.5 -140z" />
<glyph unicode="&#xe2;" horiz-adv-x="956" d="M851 1240h-168q-97 73 -189 178q-87 -99 -186 -178h-168v27q176 223 217 301h277q44 -82 217 -301v-27zM131 1032q166 105 351.5 105t278.5 -101t93 -288v-748h-195l-53 152h-6q-58 -97 -121 -134.5t-160 -37.5q-123 0 -193.5 91.5t-70.5 261t95.5 256t289.5 95.5l148 6 v80q0 156 -135 156q-99 0 -230 -78zM330 326q0 -138 98 -138q73 0 116.5 65.5t43.5 174.5v94l-82 -4q-91 -5 -133.5 -52t-42.5 -140z" />
<glyph unicode="&#xe3;" horiz-adv-x="956" d="M636 1241q-40 0 -78.5 16.5t-63.5 36.5q-67 54 -114 54q-32 0 -50.5 -24.5t-27.5 -84.5h-141q11 150 67.5 225.5t151.5 75.5q39 0 77.5 -16.5t64.5 -36.5q69 -53 116 -53q32 0 48 24.5t28 83.5h141q-11 -149 -68.5 -225t-150.5 -76zM131 1032q166 105 351.5 105 t278.5 -101t93 -288v-748h-195l-53 152h-6q-58 -97 -121 -134.5t-160 -37.5q-123 0 -193.5 91.5t-70.5 261t95.5 256t289.5 95.5l148 6v80q0 156 -135 156q-99 0 -230 -78zM330 326q0 -138 98 -138q73 0 116.5 65.5t43.5 174.5v94l-82 -4q-91 -5 -133.5 -52t-42.5 -140z" />
<glyph unicode="&#xe4;" horiz-adv-x="956" d="M296 1532q62 0 97.5 -35.5t35.5 -93.5t-35.5 -92.5t-97.5 -34.5t-97 33.5t-35 94t35 94.5t97 34zM597 1497.5q35 34.5 97 34.5t98 -34.5t36 -94t-35.5 -93.5t-97.5 -34t-97.5 34.5t-35.5 93.5t35 93.5zM131 1032q166 105 351.5 105t278.5 -101t93 -288v-748h-195l-53 152 h-6q-58 -97 -121 -134.5t-160 -37.5q-123 0 -193.5 91.5t-70.5 261t95.5 256t289.5 95.5l148 6v80q0 156 -135 156q-99 0 -230 -78zM330 326q0 -138 98 -138q73 0 116.5 65.5t43.5 174.5v94l-82 -4q-91 -5 -133.5 -52t-42.5 -140z" />
<glyph unicode="&#xe5;" horiz-adv-x="956" d="M249 1473q0 109 67.5 171t176.5 62t179.5 -64.5t70.5 -169.5t-69 -169t-179.5 -64t-178.5 62q-67 63 -67 172zM493 1573q-43 0 -71.5 -27.5t-28.5 -74t25.5 -73t72 -26.5t74.5 27.5t28 73t-28.5 73t-71.5 27.5zM131 1032q166 105 351.5 105t278.5 -101t93 -288v-748h-195 l-53 152h-6q-58 -97 -121 -134.5t-160 -37.5q-123 0 -193.5 91.5t-70.5 261t95.5 256t289.5 95.5l148 6v80q0 156 -135 156q-99 0 -230 -78zM330 326q0 -138 98 -138q73 0 116.5 65.5t43.5 174.5v94l-82 -4q-91 -5 -133.5 -52t-42.5 -140z" />
<glyph unicode="&#xe6;" horiz-adv-x="1446" d="M492 1137q165 0 258 -93q98 91 241 91q183 0 287 -134t104 -370v-142h-534q3 -147 60 -220.5t161 -73.5q135 0 266 81v-219q-128 -77 -307 -77q-232 0 -344 180q-57 -93 -132.5 -136.5t-180.5 -43.5q-154 0 -235 88.5t-81 261t95.5 259t289.5 95.5l148 6v78 q0 158 -135 158q-99 0 -230 -78l-92 184q166 105 361 105zM991 930q-125 0 -137 -248h270q-2 121 -37 184.5t-96 63.5zM330 326q0 -138 98 -138q73 0 116.5 65.5t43.5 174.5v94l-82 -4q-91 -5 -133.5 -52t-42.5 -140z" />
<glyph unicode="&#xe7;" horiz-adv-x="760" d="M506 907q-84 0 -122 -87t-38 -265t37.5 -262t120.5 -84q100 0 209 70v-234q-89 -55 -197 -64l-28 -57q71 -18 113 -65t42 -119q0 -110 -72.5 -171t-218.5 -61q-72 0 -131 21v154q63 -17 121 -17q88 0 88 66q0 85 -157 110l78 157q-136 42 -206.5 182t-70.5 370 q0 295 99 439.5t304 144.5q140 0 252 -70l-76 -207q-82 49 -147 49z" />
<glyph unicode="&#xe8;" horiz-adv-x="942" d="M144 1569h318q25 -55 80 -156q55 -96 92 -145v-27h-187q-80 64 -179.5 163.5t-123.5 143.5v21zM524 -20q-209 0 -330 148q-120 148 -120 423t109.5 429.5t297.5 154.5t293 -132.5t105 -371.5v-142h-535q3 -147 60 -220.5t161 -73.5q129 0 266 81v-219q-128 -77 -307 -77z M581 866.5q-35 63.5 -95 63.5t-96 -62.5t-42 -185.5h270q-2 121 -37 184.5z" />
<glyph unicode="&#xe9;" horiz-adv-x="942" d="M838 1569v-21q-23 -41 -116 -135t-187 -172h-187v27q40 52 95.5 152t76.5 149h318zM524 -20q-209 0 -330 148q-120 148 -120 423t109.5 429.5t297.5 154.5t293 -132.5t105 -371.5v-142h-535q3 -147 60 -220.5t161 -73.5q129 0 266 81v-219q-128 -77 -307 -77zM581 866.5 q-35 63.5 -95 63.5t-96 -62.5t-42 -185.5h270q-2 121 -37 184.5z" />
<glyph unicode="&#xea;" horiz-adv-x="942" d="M843 1241h-168q-97 73 -189 178q-87 -99 -186 -178h-168v27q176 223 217 301h277q44 -82 217 -301v-27zM524 -20q-209 0 -330 148q-120 148 -120 423t109.5 429.5t297.5 154.5t293 -132.5t105 -371.5v-142h-535q3 -147 60 -220.5t161 -73.5q129 0 266 81v-219 q-128 -77 -307 -77zM581 866.5q-35 63.5 -95 63.5t-96 -62.5t-42 -185.5h270q-2 121 -37 184.5z" />
<glyph unicode="&#xeb;" horiz-adv-x="942" d="M288 1532q62 0 97.5 -35.5t35.5 -93.5t-35.5 -92.5t-97.5 -34.5t-97 33.5t-35 94t35 94.5t97 34zM589 1497.5q35 34.5 97 34.5t98 -34.5t36 -94t-35.5 -93.5t-97.5 -34t-97.5 34.5t-35.5 93.5t35 93.5zM524 -20q-209 0 -330 148q-120 148 -120 423t109.5 429.5 t297.5 154.5t293 -132.5t105 -371.5v-142h-535q3 -147 60 -220.5t161 -73.5q129 0 266 81v-219q-128 -77 -307 -77zM581 866.5q-35 63.5 -95 63.5t-96 -62.5t-42 -185.5h270q-2 121 -37 184.5z" />
<glyph unicode="&#xec;" horiz-adv-x="496" d="M-110 1569h318q25 -55 80 -156q55 -96 92 -145v-27h-187q-80 64 -179.5 163.5t-123.5 143.5v21zM381 0h-266v1114h266v-1114z" />
<glyph unicode="&#xed;" horiz-adv-x="496" d="M603 1569v-21q-23 -41 -116 -135t-187 -172h-187v27q40 52 95.5 152t76.5 149h318zM381 0h-266v1114h266v-1114z" />
<glyph unicode="&#xee;" horiz-adv-x="496" d="M601 1241h-168q-97 73 -189 178q-87 -99 -186 -178h-168v27q176 223 217 301h277q44 -82 217 -301v-27zM381 0h-266v1114h266v-1114z" />
<glyph unicode="&#xef;" horiz-adv-x="496" d="M47 1532q62 0 97.5 -35.5t35.5 -93.5t-35.5 -92.5t-97.5 -34.5t-97 33.5t-35 94t35 94.5t97 34zM348 1497.5q35 34.5 97 34.5t98 -34.5t36 -94t-35.5 -93.5t-97.5 -34t-97.5 34.5t-35.5 93.5t35 93.5zM381 0h-266v1114h266v-1114z" />
<glyph unicode="&#xf0;" horiz-adv-x="1012" d="M938 569q0 -275 -114.5 -432t-317 -157t-317.5 135.5t-115 372t100.5 370t284.5 133.5q121 0 205 -117l12 3q-47 176 -182 317l-220 -145l-96 145l193 123q-51 39 -154 96l94 158q149 -77 234 -144l207 140l94 -144l-170 -110q262 -274 262 -744zM510 780 q-86 0 -125 -72.5t-39 -215t41.5 -214t122.5 -71.5t118.5 79.5t37.5 243.5q0 116 -42 183t-114 67z" />
<glyph unicode="&#xf1;" horiz-adv-x="1038" d="M658 1241q-40 0 -78.5 16.5t-63.5 36.5q-67 54 -114 54q-32 0 -50.5 -24.5t-27.5 -84.5h-141q11 150 67.5 225.5t151.5 75.5q39 0 77.5 -16.5t64.5 -36.5q69 -53 116 -53q32 0 48 24.5t28 83.5h141q-11 -149 -68.5 -225t-150.5 -76zM633 1135q303 0 303 -408v-727h-268 v664q0 123 -29.5 184t-93.5 61q-85 0 -125.5 -85t-40.5 -289v-535h-266v1114h211l32 -143h17q36 78 103.5 121t156.5 43z" />
<glyph unicode="&#xf2;" horiz-adv-x="1012" d="M155 1569h318q25 -55 80 -156q55 -96 92 -145v-27h-187q-80 64 -179.5 163.5t-123.5 143.5v21zM73 559q0 272 115 424t316 152t316 -156q117 -155 117 -424t-116 -423q-116 -152 -318 -152h-7q-188 0 -305.5 156.5t-117.5 409.5v13zM505 907q-83 0 -121.5 -85.5 t-38.5 -262.5t38.5 -264.5t121.5 -87.5q160 0 160 352q0 176 -38.5 262t-121.5 86z" />
<glyph unicode="&#xf3;" horiz-adv-x="1012" d="M855 1569v-21q-23 -41 -116 -135t-187 -172h-187v27q40 52 95.5 152t76.5 149h318zM73 559q0 272 115 424t316 152t316 -156q117 -155 117 -424t-116 -423q-116 -152 -318 -152h-7q-188 0 -305.5 156.5t-117.5 409.5v13zM505 907q-83 0 -121.5 -85.5t-38.5 -262.5 t38.5 -264.5t121.5 -87.5q160 0 160 352q0 176 -38.5 262t-121.5 86z" />
<glyph unicode="&#xf4;" horiz-adv-x="1012" d="M861 1241h-168q-97 73 -189 178q-87 -99 -186 -178h-168v27q176 223 217 301h277q44 -82 217 -301v-27zM73 559q0 272 115 424t316 152t316 -156q117 -155 117 -424t-116 -423q-116 -152 -318 -152h-7q-188 0 -305.5 156.5t-117.5 409.5v13zM505 907q-83 0 -121.5 -85.5 t-38.5 -262.5t38.5 -264.5t121.5 -87.5q160 0 160 352q0 176 -38.5 262t-121.5 86z" />
<glyph unicode="&#xf5;" horiz-adv-x="1012" d="M643 1241q-40 0 -78.5 16.5t-63.5 36.5q-67 54 -114 54q-32 0 -50.5 -24.5t-27.5 -84.5h-141q11 150 67.5 225.5t151.5 75.5q39 0 77.5 -16.5t64.5 -36.5q69 -53 116 -53q32 0 48 24.5t28 83.5h141q-11 -149 -68.5 -225t-150.5 -76zM73 559q0 272 115 424t316 152 t316 -156q117 -155 117 -424t-116 -423q-116 -152 -318 -152h-7q-188 0 -305.5 156.5t-117.5 409.5v13zM505 907q-83 0 -121.5 -85.5t-38.5 -262.5t38.5 -264.5t121.5 -87.5q160 0 160 352q0 176 -38.5 262t-121.5 86z" />
<glyph unicode="&#xf6;" horiz-adv-x="1012" d="M306 1532q62 0 97.5 -35.5t35.5 -93.5t-35.5 -92.5t-97.5 -34.5t-97 33.5t-35 94t35 94.5t97 34zM607 1497.5q35 34.5 97 34.5t98 -34.5t36 -94t-35.5 -93.5t-97.5 -34t-97.5 34.5t-35.5 93.5t35 93.5zM73 559q0 272 115 424t316 152t316 -156q117 -155 117 -424 t-116 -423q-116 -152 -318 -152h-7q-188 0 -305.5 156.5t-117.5 409.5v13zM505 907q-83 0 -121.5 -85.5t-38.5 -262.5t38.5 -264.5t121.5 -87.5q160 0 160 352q0 176 -38.5 262t-121.5 86z" />
<glyph unicode="&#xf7;" horiz-adv-x="918" d="M457 1217q123 0 123 -146q0 -67 -33 -106t-90 -39t-91 35.5t-34 109.5q0 146 125 146zM811 618h-705v207h705v-207zM457 518q60 0 91.5 -37.5t31.5 -106.5t-32.5 -108t-90 -39t-91.5 36t-34 110q0 145 125 145z" />
<glyph unicode="&#xf8;" horiz-adv-x="1012" d="M823 975q115 -148 115 -418.5t-116 -424.5q-116 -152 -318 -152q-92 0 -166 36l-57 -112l-162 76l78 151q-123 154 -123 427t115 425t319 152q97 0 176 -41l51 96l160 -74zM506 907q-168 0 -168 -348v-73l2 -70l244 475q-33 16 -78 16zM506 207q83 0 126.5 89t43.5 263 l-4 117l-234 -457q26 -12 68 -12z" />
<glyph unicode="&#xf9;" horiz-adv-x="1038" d="M160 1569h318q25 -55 80 -156q55 -96 92 -145v-27h-187q-80 64 -179.5 163.5t-123.5 143.5v21zM928 0h-213l-33 143h-14q-37 -76 -106 -119.5t-156 -43.5q-304 0 -304 407v727h269v-663q0 -124 29.5 -185t93.5 -61q86 0 125 86q40 84 40 289v534h269v-1114z" />
<glyph unicode="&#xfa;" horiz-adv-x="1038" d="M871 1569v-21q-23 -41 -116 -135t-187 -172h-187v27q40 52 95.5 152t76.5 149h318zM928 0h-213l-33 143h-14q-37 -76 -106 -119.5t-156 -43.5q-304 0 -304 407v727h269v-663q0 -124 29.5 -185t93.5 -61q86 0 125 86q40 84 40 289v534h269v-1114z" />
<glyph unicode="&#xfb;" horiz-adv-x="1038" d="M874 1241h-168q-97 73 -189 178q-87 -99 -186 -178h-168v27q176 223 217 301h277q44 -82 217 -301v-27zM928 0h-213l-33 143h-14q-37 -76 -106 -119.5t-156 -43.5q-304 0 -304 407v727h269v-663q0 -124 29.5 -185t93.5 -61q86 0 125 86q40 84 40 289v534h269v-1114z" />
<glyph unicode="&#xfc;" horiz-adv-x="1038" d="M317 1532q62 0 97.5 -35.5t35.5 -93.5t-35.5 -92.5t-97.5 -34.5t-97 33.5t-35 94t35 94.5t97 34zM618 1497.5q35 34.5 97 34.5t98 -34.5t36 -94t-35.5 -93.5t-97.5 -34t-97.5 34.5t-35.5 93.5t35 93.5zM928 0h-213l-33 143h-14q-37 -76 -106 -119.5t-156 -43.5 q-304 0 -304 407v727h269v-663q0 -124 29.5 -185t93.5 -61q86 0 125 86q40 84 40 289v534h269v-1114z" />
<glyph unicode="&#xfd;" horiz-adv-x="913" d="M800 1569v-21q-23 -41 -116 -135t-187 -172h-187v27q40 52 95.5 152t76.5 149h318zM184 -492q-78 0 -141 17v223q40 -12 92 -12q134 0 176 176l19 70l-330 1132h276l154 -629q24 -90 37 -235h6q1 23 9 85l13 97q5 37 138 682h280l-319 -1194q-59 -221 -154.5 -316.5 t-255.5 -95.5z" />
<glyph unicode="&#xfe;" horiz-adv-x="1016" d="M379 1192q0 -44 -14 -223h14q47 90 104 128t135 38q153 0 238.5 -151t85.5 -423t-88.5 -426.5t-245.5 -154.5q-72 0 -127.5 34t-101.5 113h-14q16 -132 16 -164v-455h-268v2048h266v-364zM379 561q0 -185 35.5 -268.5t115.5 -83.5q140 0 140 350t-142 350 q-78 0 -112.5 -72.5t-36.5 -240.5v-35z" />
<glyph unicode="&#xff;" horiz-adv-x="913" d="M257 1532q62 0 97.5 -35.5t35.5 -93.5t-35.5 -92.5t-97.5 -34.5t-97 33.5t-35 94t35 94.5t97 34zM558 1497.5q35 34.5 97 34.5t98 -34.5t36 -94t-35.5 -93.5t-97.5 -34t-97.5 34.5t-35.5 93.5t35 93.5zM184 -492q-78 0 -141 17v223q40 -12 92 -12q134 0 176 176l19 70 l-330 1132h276l154 -629q24 -90 37 -235h6q1 23 9 85l13 97q5 37 138 682h280l-319 -1194q-59 -221 -154.5 -316.5t-255.5 -95.5z" />
<glyph unicode="&#x131;" horiz-adv-x="496" d="M381 0h-266v1114h266v-1114z" />
<glyph unicode="&#x152;" horiz-adv-x="1446" d="M1360 0h-600q-78 -20 -150 -20q-253 0 -390 194q-136 194 -136 559t136.5 558.5t391.5 193.5q80 0 158 -23h590v-235h-383v-348h354v-236h-354v-405h383v-238zM612 1245q-123 0 -186.5 -130t-63.5 -381t63 -382t185 -131q54 0 95 15v995q-48 14 -93 14z" />
<glyph unicode="&#x153;" horiz-adv-x="1532" d="M1115 -20q-198 0 -313 141q-115 -141 -299 -141h-7q-188 0 -305.5 156.5t-117.5 409.5v13q0 272 115 424t319 152q173 0 289 -140q107 140 285 140t282 -134t104 -370v-142h-532q3 -146 60 -220t159 -74q131 0 268 81v-219q-131 -77 -307 -77zM1172 866.5 q-35 63.5 -95 63.5t-96 -62.5t-42 -185.5h270q-2 121 -37 184.5zM505 907q-83 0 -121.5 -85.5t-38.5 -262.5t38.5 -264.5t121.5 -87.5q160 0 160 352q0 176 -38.5 262t-121.5 86z" />
<glyph unicode="&#x160;" horiz-adv-x="846" d="M792 1907v-27q-164 -208 -217 -301h-277q-41 77 -217 301v27h168q98 -72 190 -178q90 100 185 178h168zM369 217q77 0 117 42t40 116t-46.5 135t-146 129t-152.5 130q-48 60 -74.5 134.5t-26.5 171.5q0 188 104 298q105 110 277.5 110t326.5 -94l-90 -218 q-125 72 -213 72q-65 0 -101 -43t-36 -117.5t42 -130.5q43 -55 149 -125q145 -97 199 -196q57 -101 57 -228q0 -205 -103.5 -314t-296.5 -109t-327 75v269q164 -107 301 -107z" />
<glyph unicode="&#x161;" horiz-adv-x="766" d="M739 1569v-27q-164 -208 -217 -301h-277q-41 77 -217 301v27h168q98 -72 190 -178q90 100 185 178h168zM61 276q57 -38 128.5 -63t131 -25t92.5 30t33 81.5t-35 89.5t-124 92q-120 72 -173 153.5t-53 192.5q0 143 97.5 225.5t256.5 82.5t290 -78l-87 -191 q-106 58 -188 58q-49 0 -75.5 -26t-26.5 -69.5t30.5 -77t126.5 -92t138 -102.5q88 -92 88 -231q0 -165 -96.5 -255.5t-270.5 -90.5t-283 65v231z" />
<glyph unicode="&#x178;" horiz-adv-x="961" d="M282 1870q62 0 97.5 -35.5t35.5 -93.5t-35.5 -92.5t-97.5 -34.5t-97 33.5t-35 94t35 94.5t97 34zM583 1835.5q35 34.5 97 34.5t98 -34.5t36 -94t-35.5 -93.5t-97.5 -34t-97.5 34.5t-35.5 93.5t35 93.5zM614 0h-268v575l-346 887h287l194 -577l195 577h285l-347 -876v-586 z" />
<glyph unicode="&#x17d;" horiz-adv-x="877" d="M792 1907v-27q-164 -208 -217 -301h-277q-41 77 -217 301v27h168q98 -72 190 -178q90 100 185 178h168zM834 238v-238h-791v190l467 1035h-453v237h762v-190l-467 -1034h482z" />
<glyph unicode="&#x17e;" horiz-adv-x="731" d="M724 1569v-27q-164 -208 -217 -301h-277q-41 77 -217 301v27h168q98 -72 190 -178q90 100 185 178h168zM690 215v-215h-649v170l342 729h-320v215h613v-188l-332 -711h346z" />
<glyph unicode="&#x192;" horiz-adv-x="948" d="M299 1116q0 190 83.5 278.5t268.5 88.5q137 0 244 -45l-68 -207q-78 29 -136.5 29t-84.5 -38.5t-26 -115.5v-76h219v-213h-221v-938q0 -182 -91.5 -276.5t-265.5 -94.5q-88 0 -172 23v223q59 -18 122.5 -18t95.5 43t32 135v903h-166v135l166 78v86z" />
<glyph unicode="&#x2c6;" horiz-adv-x="1135" d="M922 1241h-168q-97 73 -189 178q-87 -99 -186 -178h-168v27q176 223 217 301h277q44 -82 217 -301v-27z" />
<glyph unicode="&#x2c7;" horiz-adv-x="1135" d="M922 1569v-27q-164 -208 -217 -301h-277q-41 77 -217 301v27h168q98 -72 190 -178q90 100 185 178h168z" />
<glyph unicode="&#x2d8;" horiz-adv-x="1126" d="M779.5 1325.5q-81.5 -84.5 -223.5 -84.5t-220 84.5t-84 241.5h160q8 -71 36 -98q30 -27 110.5 -27t111 27.5t41.5 97.5h161q-11 -157 -92.5 -241.5z" />
<glyph unicode="&#x2d9;" horiz-adv-x="569" d="M131 1405q0 143 153.5 143t153.5 -143q0 -70 -39.5 -106.5t-113.5 -36.5q-154 0 -154 143z" />
<glyph unicode="&#x2da;" horiz-adv-x="1116" d="M311 1473q0 109 67.5 171t176.5 62t179.5 -64.5t70.5 -169.5t-69 -169t-179.5 -64t-178.5 62q-67 63 -67 172zM555 1573q-43 0 -71.5 -27.5t-28.5 -74t25.5 -73t72 -26.5t74.5 27.5t28 73t-28.5 73t-71.5 27.5z" />
<glyph unicode="&#x2db;" horiz-adv-x="416" d="M397 -260q0 -110 -72.5 -171t-218.5 -61q-72 0 -131 21v154q63 -17 121 -17q88 0 88 66q0 85 -157 110l79 158h173l-37 -76q71 -18 113 -65t42 -119z" />
<glyph unicode="&#x2dc;" horiz-adv-x="1135" d="M696 1241q-40 0 -78.5 16.5t-63.5 36.5q-67 54 -114 54q-32 0 -50.5 -24.5t-27.5 -84.5h-141q11 150 67.5 225.5t151.5 75.5q39 0 77.5 -16.5t64.5 -36.5q69 -53 116 -53q32 0 48 24.5t28 83.5h141q-11 -149 -68.5 -225t-150.5 -76z" />
<glyph unicode="&#x2dd;" horiz-adv-x="1149" d="M606 1569v-21q-29 -49 -126.5 -145.5t-176.5 -161.5h-151v27q40 55 92 146t82 155h280zM997 1569v-21q-26 -45 -122 -139q-96 -96 -183 -168h-149v27q40 55 92 146t82 155h280z" />
<glyph unicode="&#x5b0;" d="M-69 -124.5q25 23.5 68.5 23.5t68.5 -23.5t25 -63.5t-25 -63t-68.5 -23t-68.5 23t-25 63t25 63.5zM-69 -365.5q25 23.5 68.5 23.5t68.5 -23.5t25 -63t-25 -63t-68.5 -23.5t-68.5 23t-25 63t25 63.5z" />
<glyph unicode="&#x5b1;" d="M-281 -116q43 0 68.5 -23.5t25.5 -63.5t-25.5 -63t-68.5 -23t-68 23t-25 63t25 63.5t68 23.5zM-53 -139q25 23 68.5 23t69.5 -24t26 -63.5t-26 -62.5t-70 -23t-68.5 22.5t-24.5 63.5t25 64zM213 -139.5q25 23.5 68.5 23.5t68.5 -23.5t25 -63.5t-25 -63t-68.5 -23 t-68.5 23t-25 63t25 63.5zM-129 -357q43 0 68 -23.5t25 -63t-25 -63t-68.5 -23.5t-68 23t-24.5 63.5t25 63.5t68 23zM213 -380.5q25 23.5 68.5 23.5t68.5 -23.5t25 -63t-25 -63t-68.5 -23.5t-68.5 23t-25 63t25 63.5z" />
<glyph unicode="&#x5b2;" d="M226 -116q43 0 68 -23.5t25 -63.5t-25 -63t-68.5 -23t-68 23t-24.5 63.5t25 63.5t68 23zM48 -259h-367v117h367v-117zM226 -357q43 0 68 -23.5t25 -63t-25 -63t-68.5 -23.5t-68 23t-24.5 63.5t25 63.5t68 23z" />
<glyph unicode="&#x5b3;" d="M159 -139.5q25 23.5 68.5 23.5t68.5 -23.5t25 -63.5t-25 -63t-68.5 -23t-68.5 23t-25 63t25 63.5zM46 -259h-128v-202h-111v202h-128v117h367v-117zM159 -380.5q25 23.5 68.5 23.5t68.5 -23.5t25 -63t-25 -63t-68.5 -23.5t-68.5 23t-25 63t25 63.5z" />
<glyph unicode="&#x5b4;" d="M-69 -134q25 23 68.5 23t69.5 -24t26 -63t-26 -62.5t-70 -23.5t-68.5 22.5t-24.5 63.5t25 64z" />
<glyph unicode="&#x5b5;" d="M-149 -92q43 0 68 -23.5t25 -63t-25 -63t-68.5 -23.5t-68 23t-24.5 63.5t25 63.5t68 23zM78 -115q25 23 69 23t70 -24t26 -63t-26 -62.5t-70 -23.5t-69 22.5t-25 63.5t25 64z" />
<glyph unicode="&#x5b6;" d="M-152 -116q43 0 68 -23.5t25 -63.5t-25 -63t-68.5 -23t-68 23t-24.5 63.5t25 63.5t68 23zM75 -139q25 23 69 23t70 -24t26 -63.5t-26 -62.5t-70 -23t-69 22.5t-25 63.5t25 64zM-69 -380.5q25 23.5 68.5 23.5t68.5 -23.5t25 -63t-25 -63t-68.5 -23.5t-68.5 23t-25 63 t25 63.5z" />
<glyph unicode="&#x5b7;" d="M197 -234h-393v116h393v-116z" />
<glyph unicode="&#x5b8;" d="M191 -255h-136v-202h-111v202h-135v117h382v-117z" />
<glyph unicode="&#x5b9;" d="M-67 1560q25 23 68.5 23t69.5 -24t26 -63t-26 -62.5t-70 -23.5t-68.5 22.5t-24.5 63.5t25 64z" />
<glyph unicode="&#x5ba;" d="M-69 1560q25 23 68.5 23t69.5 -24t26 -63t-26 -62.5t-70 -23.5t-68.5 22.5t-24.5 63.5t25 64z" />
<glyph unicode="&#x5bb;" d="M-88 -127q43 0 68 -23.5t25 -63.5t-25 -63t-68.5 -23t-68 23t-24.5 63.5t25 63.5t68 23zM25 -326.5q25 23.5 68.5 23.5t68.5 -23.5t25 -63t-25 -63t-68.5 -23.5t-68.5 23t-25 63t25 63.5zM210 -501q25 23 68.5 23t69.5 -24t26 -63t-26 -62.5t-70 -23.5t-68.5 22.5 t-24.5 63.5t25 64z" />
<glyph unicode="&#x5bc;" d="M-69 720q25 23 68.5 23t69.5 -24t26 -63t-26 -62.5t-70 -23.5t-68.5 22.5t-24.5 63.5t25 64z" />
<glyph unicode="&#x5bd;" d="M51 -509h-103v352h103v-352z" />
<glyph unicode="&#x5be;" horiz-adv-x="647" d="M575 1056h-503v234h503v-234z" />
<glyph unicode="&#x5c1;" d="M-69 1560q25 23 68.5 23t69.5 -24t26 -63t-26 -62.5t-70 -23.5t-68.5 22.5t-24.5 63.5t25 64z" />
<glyph unicode="&#x5c2;" d="M-69 1560q25 23 68.5 23t69.5 -24t26 -63t-26 -62.5t-70 -23.5t-68.5 22.5t-24.5 63.5t25 64z" />
<glyph unicode="&#x5c7;" d="M205 -210h-161v-234h-93v234h-156v100h410v-100z" />
<glyph unicode="&#x5d0;" horiz-adv-x="1024" d="M969 1290v-462q0 -159 -60 -246q-24 -34 -66.5 -66.5t-101.5 -53.5l218 -462h-308l-257 612q-43 -43 -43 -148v-464h-265v461q0 58 7 102.5t27 95.5q41 103 174 160l-233 471h307l192 -442l86 -184q56 42 58 161v465h265z" />
<glyph unicode="&#x5d1;" horiz-adv-x="927" d="M84 1294q119 16 227.5 16t168.5 -10t103.5 -28t75 -47.5t51 -64t30.5 -83.5q20 -83 20 -216v-646h134v-215h-810v215h409v647q0 132 -40 181.5t-148 49.5q-123 0 -198 -13l-23 -4v218z" />
<glyph unicode="&#x5d2;" horiz-adv-x="786" d="M300 1087q-61 0 -134 -23v223q68 23 163.5 23t159 -19t101 -50t59 -83t28.5 -104.5t7 -127.5v-926h-192l-45 188h-15q-7 -28 -33.5 -68t-56.5 -67.5t-84.5 -50t-106.5 -22.5t-114 11l22 247q3 -3 30.5 -6t52.5 -3q112 0 185 39q57 30 74 90t17 168v400q0 161 -118 161z " />
<glyph unicode="&#x5d3;" horiz-adv-x="844" d="M826 1290v-203q-152 -56 -152 -268v-819h-266v826q0 55 15.5 100t37.5 70q45 52 83 66l15 6v7h-532v215h799z" />
<glyph unicode="&#x5d4;" horiz-adv-x="1038" d="M498.5 1310q96.5 0 156.5 -10t103.5 -28t75 -47.5t51.5 -64t31 -83.5q20 -83 20 -216v-861h-267v862q0 132 -40 181.5t-149 49.5q-73 0 -165 -9.5t-147 -19.5l-55 -10v213q51 16 170 29.5t215.5 13.5zM380 0h-267v823h267v-823z" />
<glyph unicode="&#x5d5;" horiz-adv-x="492" d="M379 0h-266v1290h266v-1290z" />
<glyph unicode="&#x5d6;" horiz-adv-x="570" d="M541 1290v-215q-20 -34 -57 -113t-57.5 -179.5t-24 -169.5t-3.5 -179v-434h-266v434q0 209 43 348q42 135 90 197q48 63 74 81l12 8v7h-254v215h443z" />
<glyph unicode="&#x5d7;" horiz-adv-x="1038" d="M113 0v1267q210 43 406 43q223 0 315 -86q62 -58 82 -147q20 -83 20 -216v-861h-267v862q0 132 -40 181.5t-149 49.5q-37 0 -100 -9v-1084h-267z" />
<glyph unicode="&#x5d8;" horiz-adv-x="1038" d="M465 1301q49 9 112 9t126 -29.5t105.5 -82t74 -117t48.5 -141.5q33 -149 33 -281.5t-17 -232t-44 -167t-65 -119.5t-76.5 -81.5t-82.5 -48t-78 -24.5t-68 -6t-68 6t-78 24.5t-82.5 48t-76.5 81t-65 118.5q-61 153 -61 387v643h272v-642q0 -259 46 -360q23 -48 50 -68.5 t63 -20.5t63 20.5t49.5 69t34.5 139t12 220.5t-12 220t-34.5 138.5t-49.5 68.5t-63 20l-68 -6v214z" />
<glyph unicode="&#x5d9;" horiz-adv-x="492" d="M113 436v854h266v-596l-164 -258h-102z" />
<glyph unicode="&#x5da;" horiz-adv-x="821" d="M55 1283q119 27 235.5 27t191 -32.5t119 -84.5t72 -129t37 -154.5t9.5 -172.5v-1229h-266v1229q0 141 -35 238q-18 50 -51.5 78.5t-79.5 28.5q-83 0 -232 -21v222z" />
<glyph unicode="&#x5db;" horiz-adv-x="793" d="M55 1283q119 27 235.5 27t191 -32.5t119 -84.5t72 -129t37 -154.5t9.5 -172.5v-215q0 -174 -53 -302q-29 -72 -74.5 -124t-118 -84t-165.5 -32q-150 0 -253 31v230q108 -33 232 -33q159 0 159 314v215q0 345 -159 345q-80 0 -232 -16v217z" />
<glyph unicode="&#x5dc;" horiz-adv-x="823" d="M309 1290h471v-180l-169 -613l-102 -497h-258l102 497l159 578h-469v481h266v-266z" />
<glyph unicode="&#x5dd;" horiz-adv-x="1038" d="M113 0v1282q45 9 158 18.5t218.5 9.5t165.5 -10t103.5 -28t75 -47.5t51.5 -64t31 -83.5q20 -83 20 -216v-861h-823zM669 215v647q0 132 -40 181.5t-149 49.5q-72 0 -100 -4v-874h289z" />
<glyph unicode="&#x5de;" horiz-adv-x="1082" d="M545 1288.5q56 21.5 121.5 21.5t116.5 -21t84.5 -61t56.5 -89.5t34 -116.5q22 -125 22 -274v-748h-506v215h240v531q0 340 -139 340q-39 0 -73 -21.5t-54 -52.5q-45 -66 -58 -112l-6 -22l-76 -878h-265l70 837q4 41 4 83q0 126 -37 256l-36 114h253q15 -38 30 -90l21 -89 h14q11 29 37.5 66.5t58 63.5t87.5 47.5z" />
<glyph unicode="&#x5df;" horiz-adv-x="473" d="M360 825v-1317h-266v1317q0 132 -14.5 248.5t-29.5 166.5l-14 50h266q6 -19 16 -55t26 -157t16 -253z" />
<glyph unicode="&#x5e0;" horiz-adv-x="715" d="M290 1073q-24 14 -68 14t-120 -19v222q94 20 161.5 20t119.5 -10t88.5 -26.5t62.5 -44t41 -57t24 -72.5q14 -66 14 -174v-561q0 -94 -12.5 -185t-24.5 -136l-13 -44h-520v215h286q18 77 18 230v481q0 115 -57 147z" />
<glyph unicode="&#x5e1;" horiz-adv-x="1010" d="M505 1310q73 0 131.5 -24t97 -53.5t76.5 -81t65 -119t44 -167t17 -219.5t-17 -219.5t-44 -167t-65 -119.5t-76.5 -81.5t-82.5 -48t-78 -24.5t-68 -6t-68 6t-78 24.5t-82.5 48t-76.5 81.5t-65 120q-61 152 -61 386q0 123 44.5 247.5t100.5 176.5v8l-132 -9v213 q176 28 418 28zM514 1093q-38 0 -79 -9q-52 -72 -70.5 -174t-18.5 -248t12 -236.5t34.5 -139t49.5 -69t63 -20.5t63 20.5t49.5 69t34.5 139t12 220.5t-12 220t-34 138q-42 89 -104 89z" />
<glyph unicode="&#x5e2;" horiz-adv-x="972" d="M417 708l53 -397q57 67 94.5 163t45.5 193l53 622h267l-50 -578q-14 -167 -42 -259q-34 -114 -83 -189q-69 -105 -159 -163q-110 -73 -261 -104l-283 -56v218l209 42l-218 1090h265z" />
<glyph unicode="&#x5e3;" horiz-adv-x="1005" d="M77 684.5q-23 73.5 -23 177t35 192.5t95 144q121 112 288 112q73 0 131.5 -24t97 -53.5t76.5 -81t65 -119.5q61 -152 61 -386v-1138h-266v1138q0 262 -49 358q-24 48 -52 68.5t-70 20.5t-74.5 -29.5t-45.5 -73.5q-21 -72 -21 -126q0 -195 142 -221l38 -7l-51 -210l-53 7 q-50 7 -92 19t-91.5 42t-83.5 73.5t-57 117z" />
<glyph unicode="&#x5e4;" horiz-adv-x="976" d="M77 684.5q-23 73.5 -23 177t35 192.5t95 144q121 112 288 112q73 0 131.5 -24t97 -53.5t76.5 -81t65 -119t44 -167t17 -219.5t-17 -219.5t-44 -167t-65 -119.5t-76.5 -81.5t-82.5 -48.5q-73 -30 -151 -30t-155 7t-113 14l-36 7v224q193 -35 309 -35q36 0 63 20.5t49.5 69 t34.5 139t12 220.5t-12 220t-34.5 138.5t-49.5 68.5t-69 20t-74.5 -29.5t-45.5 -73.5q-21 -72 -21 -126q0 -195 142 -221l38 -7l-51 -210l-53 7q-50 7 -92 19t-91.5 42t-83.5 73.5t-57 117z" />
<glyph unicode="&#x5e5;" horiz-adv-x="949" d="M875 1290v-480q0 -375 -392 -375h-16v-927h-266v1069l-189 713h295l123 -629l6 -36h24q79 0 114 42t35 140v483h266z" />
<glyph unicode="&#x5e6;" horiz-adv-x="1003" d="M899 0h-831v215h346l172 -14v4l-166 254l-362 831h277l236 -559q41 52 64.5 111.5t33.5 164.5l24 282h267l-21 -238q-5 -53 -9.5 -88t-21.5 -107.5t-41.5 -127.5t-70.5 -121t-107 -115l210 -334v-158z" />
<glyph unicode="&#x5e7;" horiz-adv-x="1057" d="M765 34v-34h-264v34q0 186 77 471l148 570h-592v215h880v-166l-159 -609q-46 -177 -68 -286t-22 -195zM400 -493h-266v1265h266v-1265z" />
<glyph unicode="&#x5e8;" horiz-adv-x="822" d="M43 1295q148 15 257 15t184 -19.5t120.5 -54t71.5 -93t35 -123.5t9 -159v-861h-267v862q0 127 -37.5 179t-151.5 52q-71 0 -221 -15v217z" />
<glyph unicode="&#x5e9;" horiz-adv-x="1291" d="M509 0h-363l-103 1290h265l55 -664q68 4 99 46t39 135l38 483h263l-37 -480q-28 -361 -387 -374l19 -221h112q190 0 302 131.5t131 363.5l47 580h265l-48 -579q-12 -152 -48 -261q-42 -126 -107 -211q-35 -46 -88 -92.5t-117 -76.5q-144 -70 -337 -70z" />
<glyph unicode="&#x5ea;" horiz-adv-x="1065" d="M240 -14q-38 -6 -91 -6t-117 27v214q31 -18 64 -18t50.5 13.5t25.5 39.5q11 40 11 108v704l-96 -19v213q20 5 56.5 13t156 21.5t221 13.5t161.5 -10t103.5 -28t75 -47.5t51.5 -64t32 -83.5q19 -83 19 -216v-861h-267v862q0 132 -40 181.5t-149 49.5q-35 0 -57 -1v-728 q0 -143 -14 -200q-15 -69 -35.5 -92.5t-42.5 -41.5t-51 -28t-67 -16z" />
<glyph unicode="&#x5f3;" horiz-adv-x="420" d="M386 1290l14 -22q-50 -199 -176 -479h-204q67 285 100 501h266z" />
<glyph unicode="&#x5f4;" horiz-adv-x="855" d="M386 1290l14 -22q-50 -199 -176 -479h-204q67 285 100 501h266zM821 1290l14 -22q-50 -199 -176 -479h-204q67 285 100 501h266z" />
<glyph unicode="&#x2013;" horiz-adv-x="972" d="M903 442h-833v217h833v-217z" />
<glyph unicode="&#x2014;" horiz-adv-x="1579" d="M1507 442h-1437v217h1437v-217z" />
<glyph unicode="&#x2018;" horiz-adv-x="420" d="M20 983q60 226 177 479h202q-28 -112 -59.5 -270t-40.5 -231h-264z" />
<glyph unicode="&#x2019;" horiz-adv-x="420" d="M385 1462l14 -22q-49 -195 -176 -479h-203q62 246 101 501h264z" />
<glyph unicode="&#x201a;" horiz-adv-x="553" d="M416 238l14 -23q-53 -205 -176 -479h-203q65 269 101 502h264z" />
<glyph unicode="&#x201c;" horiz-adv-x="854" d="M20 983q60 226 177 479h202q-28 -112 -59.5 -270t-40.5 -231h-264zM631 1462h203q-67 -272 -101 -501h-264l-14 22q33 124 84 257.5t92 221.5z" />
<glyph unicode="&#x201d;" horiz-adv-x="854" d="M385 1462l14 -22q-49 -195 -176 -479h-203q62 246 101 501h264zM819 1462l15 -22q-50 -193 -177 -479h-202q64 256 100 501h264z" />
<glyph unicode="&#x201e;" horiz-adv-x="986" d="M416 238l14 -23q-53 -205 -176 -479h-203q65 269 101 502h264zM850 238l14 -23q-53 -205 -176 -479h-203q65 269 101 502h264z" />
<glyph unicode="&#x2020;" horiz-adv-x="1024" d="M580 1139l331 30v-229l-331 31l55 -971h-266l55 971l-311 -31v229l311 -30l-55 417h266z" />
<glyph unicode="&#x2021;" horiz-adv-x="1024" d="M590 1180l332 30v-229l-332 31l47 -226l-47 -241l332 30v-229l-332 31l55 -377h-266l55 377l-332 -31v229l332 -30l-47 241l47 226l-332 -31v229l332 -30l-55 376h266z" />
<glyph unicode="&#x2022;" horiz-adv-x="750" d="M169.5 975.5q71.5 79.5 204.5 79.5t205 -80.5t72 -226t-73 -227t-204 -81.5t-203.5 80.5t-72.5 228t71.5 227z" />
<glyph unicode="&#x2026;" horiz-adv-x="1659" d="M276 301q81 0 123.5 -42.5t42.5 -121t-43.5 -121.5t-123 -43t-122 43t-42.5 121.5t42 121t123 42.5zM829 301q81 0 123.5 -42.5t42.5 -121t-43.5 -121.5t-123 -43t-122 43t-42.5 121.5t42 121t123 42.5zM1382 301q81 0 123.5 -42.5t42.5 -121t-43.5 -121.5t-123 -43 t-122 43t-42.5 121.5t42 121t123 42.5z" />
<glyph unicode="&#x2030;" horiz-adv-x="2206" d="M352 1483q295 0 295 -457q0 -226 -75.5 -343.5t-221.5 -117.5t-216.5 114t-70.5 343q0 461 289 461zM578 0h-207l604 1462h207zM354 1290q-42 0 -60 -63t-18 -203t18 -203t60 -63t61 63.5t19 202.5t-19 202.5t-61 63.5zM1198 899q295 0 295 -457q0 -225 -76.5 -342.5 t-222 -117.5t-216.5 113.5t-71 342.5q0 461 291 461zM1847 899q295 0 295 -457q0 -225 -75.5 -342.5t-221.5 -117.5t-216 113t-70 343q0 461 288 461zM1198 705q-41 0 -59.5 -63t-18.5 -202t19 -202.5t61 -63.5q80 0 80 265.5t-82 265.5zM1849 705q-41 0 -59 -62.5 t-18 -202.5t17.5 -203t59.5 -63t61 63.5t19 202.5q0 265 -80 265z" />
<glyph unicode="&#x2039;" horiz-adv-x="653" d="M580 905l-220 -348l220 -348l-199 -111l-307 445v26l307 447z" />
<glyph unicode="&#x203a;" horiz-adv-x="653" d="M580 569v-26l-308 -445l-198 111l219 348l-219 348l198 111z" />
<glyph unicode="&#x2044;" horiz-adv-x="201" d="M-170 0h-203l742 1462h204z" />
<glyph unicode="&#x20aa;" horiz-adv-x="1588" d="M133 1290h457q199 0 327 -60q55 -25 93.5 -70.5t59 -87t31.5 -107t13.5 -114t2.5 -124.5v-264h-253v264q0 131 -14.5 183t-33 75.5t-49.5 40.5q-57 31 -177 31h-192v-1057h-265v1290zM1486 1290v-514q0 -270 -75 -441q-29 -66 -80 -130.5t-118.5 -108t-166.5 -70 t-221 -26.5h-322v827h265v-594h56q232 0 324 149q45 73 65 168.5t20 225.5v514h253z" />
<glyph unicode="&#x20ac;" horiz-adv-x="948" d="M41 946h129q38 262 161.5 400.5t315.5 138.5q86 0 150.5 -16.5t130.5 -53.5l-90 -215q-97 47 -180 47t-139 -77t-79 -224h295v-168h-309v-123h264v-168h-248q51 -268 232 -268q108 0 233 74v-242q-110 -71 -262 -71q-194 0 -315 129.5t-158 377.5h-131v168h117v123h-117 v168z" />
<glyph unicode="&#x2122;" horiz-adv-x="1366" d="M506 1321h-170v-580h-154v580h-170v141h494v-141zM1257 741h-153v452l2 81h-4l-127 -533h-148l-122 533h-7l4 -189v-344h-149v721h242l106 -489l117 489h239v-721z" />
<glyph unicode="&#x25fc;" horiz-adv-x="1115" d="M0 1115h1115v-1115h-1115v1115z" />
<glyph unicode="&#xfb01;" horiz-adv-x="1108" d="M158 1200q0 188 78 277.5t247 89.5q108 0 201 -45l-70 -203q-50 24 -99 24t-70 -36t-21 -111v-82h184v-211h-184v-903h-266v903h-129v133l129 80v84zM754.5 1509.5q38.5 38.5 105.5 38.5t106 -38.5t39 -105t-39.5 -104.5t-105 -38t-105 38t-39.5 104.5t38.5 105zM993 0 h-266v1114h266v-1114z" />
<glyph unicode="&#xfb02;" horiz-adv-x="1102" d="M158 1200q0 188 78 277.5t247 89.5q108 0 201 -45l-70 -203q-50 24 -99 24t-70 -36t-21 -111v-82h184v-211h-184v-903h-266v903h-129v133l129 80v84zM991 0h-266v1556h266v-1556z" />
<glyph unicode="&#xfb2a;" horiz-adv-x="1291" d="M1108 1560q25 23 68.5 23t69.5 -24t26 -63t-26 -62.5t-70 -23.5t-68.5 22.5t-24.5 63.5t25 64zM509 0h-363l-103 1290h265l55 -664q68 4 99 46t39 135l38 483h263l-37 -480q-28 -361 -387 -374l19 -221h112q190 0 302 131.5t131 363.5l47 580h265l-48 -579 q-12 -152 -48 -261q-42 -126 -107 -211q-35 -46 -88 -92.5t-117 -76.5q-144 -70 -337 -70z" />
<glyph unicode="&#xfb2b;" horiz-adv-x="1291" d="M58 1560q25 23 68.5 23t69.5 -24t26 -63t-26 -62.5t-70 -23.5t-68.5 22.5t-24.5 63.5t25 64zM509 0h-363l-103 1290h265l55 -664q68 4 99 46t39 135l38 483h263l-37 -480q-28 -361 -387 -374l19 -221h112q190 0 302 131.5t131 363.5l47 580h265l-48 -579 q-12 -152 -48 -261q-42 -126 -107 -211q-35 -46 -88 -92.5t-117 -76.5q-144 -70 -337 -70z" />
<glyph unicode="&#xfb2c;" horiz-adv-x="1291" d="M1108 1560q25 23 68.5 23t69.5 -24t26 -63t-26 -62.5t-70 -23.5t-68.5 22.5t-24.5 63.5t25 64zM509 0h-363l-103 1290h265l55 -664q68 4 99 46t39 135l38 483h263l-37 -480q-28 -361 -387 -374l19 -221h112q190 0 302 131.5t131 363.5l47 580h265l-48 -579 q-12 -152 -48 -261q-42 -126 -107 -211q-35 -46 -88 -92.5t-117 -76.5q-144 -70 -337 -70zM577 453q25 23 68.5 23t69.5 -24t26 -63t-26 -62.5t-70 -23.5t-68.5 22.5t-24.5 63.5t25 64z" />
<glyph unicode="&#xfb2d;" horiz-adv-x="1291" d="M58 1560q25 23 68.5 23t69.5 -24t26 -63t-26 -62.5t-70 -23.5t-68.5 22.5t-24.5 63.5t25 64zM509 0h-363l-103 1290h265l55 -664q68 4 99 46t39 135l38 483h263l-37 -480q-28 -361 -387 -374l19 -221h112q190 0 302 131.5t131 363.5l47 580h265l-48 -579 q-12 -152 -48 -261q-42 -126 -107 -211q-35 -46 -88 -92.5t-117 -76.5q-144 -70 -337 -70zM577 453q25 23 68.5 23t69.5 -24t26 -63t-26 -62.5t-70 -23.5t-68.5 22.5t-24.5 63.5t25 64z" />
<glyph unicode="&#xfb2e;" horiz-adv-x="1024" d="M969 1290v-462q0 -159 -60 -246q-24 -34 -66.5 -66.5t-101.5 -53.5l218 -462h-308l-257 612q-43 -43 -43 -148v-464h-265v461q0 58 7 102.5t27 95.5q41 103 174 160l-233 471h307l192 -442l86 -184q56 42 58 161v465h265zM709 -344h-393v116h393v-116z" />
<glyph unicode="&#xfb2f;" horiz-adv-x="1024" d="M969 1290v-462q0 -159 -60 -246q-24 -34 -66.5 -66.5t-101.5 -53.5l218 -462h-308l-257 612q-43 -43 -43 -148v-464h-265v461q0 58 7 102.5t27 95.5q41 103 174 160l-233 471h307l192 -442l86 -184q56 42 58 161v465h265zM703 -365h-136v-202h-111v202h-135v117h382v-117 z" />
<glyph unicode="&#xfb30;" horiz-adv-x="1024" d="M969 1290v-462q0 -159 -60 -246q-24 -34 -66.5 -66.5t-101.5 -53.5l218 -462h-308l-257 612q-43 -43 -43 -148v-464h-265v461q0 58 7 102.5t27 95.5q41 103 174 160l-233 471h307l192 -442l86 -184q56 42 58 161v465h265zM404 200q25 23 68.5 23t69.5 -24t26 -63 t-26 -62.5t-70 -23.5t-68.5 22.5t-24.5 63.5t25 64z" />
<glyph unicode="&#xfb31;" horiz-adv-x="927" d="M84 1294q119 16 227.5 16t168.5 -10t103.5 -28t75 -47.5t51 -64t30.5 -83.5q20 -83 20 -216v-646h134v-215h-810v215h409v647q0 132 -40 181.5t-148 49.5q-123 0 -198 -13l-23 -4v218zM198 699q25 23 68.5 23t69.5 -24t26 -63t-26 -62.5t-70 -23.5t-68.5 22.5t-24.5 63.5 t25 64z" />
<glyph unicode="&#xfb32;" horiz-adv-x="786" d="M300 1087q-61 0 -134 -23v223q68 23 163.5 23t159 -19t101 -50t59 -83t28.5 -104.5t7 -127.5v-926h-192l-45 188h-15q-7 -28 -33.5 -68t-56.5 -67.5t-84.5 -50t-106.5 -22.5t-114 11l22 247q3 -3 30.5 -6t52.5 -3q112 0 185 39q57 30 74 90t17 168v400q0 161 -118 161z M151 699q25 23 68.5 23t69.5 -24t26 -63t-26 -62.5t-70 -23.5t-68.5 22.5t-24.5 63.5t25 64z" />
<glyph unicode="&#xfb33;" horiz-adv-x="844" d="M826 1290v-203q-152 -56 -152 -268v-819h-266v826q0 55 15.5 100t37.5 70q45 52 83 66l15 6v7h-532v215h799zM144 699q25 23 68.5 23t69.5 -24t26 -63t-26 -62.5t-70 -23.5t-68.5 22.5t-24.5 63.5t25 64z" />
<glyph unicode="&#xfb34;" horiz-adv-x="1038" d="M498.5 1310q96.5 0 156.5 -10t103.5 -28t75 -47.5t51.5 -64t31 -83.5q20 -83 20 -216v-861h-267v862q0 132 -40 181.5t-149 49.5q-73 0 -165 -9.5t-147 -19.5l-55 -10v213q51 16 170 29.5t215.5 13.5zM113 0v823h267v-823h-267zM456 699q25 23 68.5 23t69.5 -24t26 -63 t-26 -62.5t-70 -23.5t-68.5 22.5t-24.5 63.5t25 64z" />
<glyph unicode="&#xfb35;" horiz-adv-x="492" d="M113 0v1290h266v-1290h-266zM-31 664q16 17 44.5 17t45.5 -18t17 -47t-17 -46.5t-45.5 -17.5t-44.5 17t-16 47.5t16 47.5z" />
<glyph unicode="&#xfb36;" horiz-adv-x="570" d="M541 1290v-215q-20 -34 -57 -113t-57.5 -179.5t-24 -169.5t-3.5 -179v-434h-266v434q0 209 43 348q42 135 90 197q48 63 74 81l12 8v7h-254v215h443zM-35 664q16 17 44.5 17t45.5 -18t17 -47t-17 -46.5t-45.5 -17.5t-44.5 17t-16 47.5t16 47.5z" />
<glyph unicode="&#xfb38;" horiz-adv-x="1038" d="M465 1301q49 9 112 9t126 -29.5t105.5 -82t74 -117t48.5 -141.5q33 -149 33 -281.5t-17 -232t-44 -167t-65 -119.5t-76.5 -81.5t-82.5 -48t-78 -24.5t-68 -6t-68 6t-78 24.5t-82.5 48t-76.5 81t-65 118.5q-61 153 -61 387v643h272v-642q0 -259 46 -360q23 -48 50 -68.5 t63 -20.5t63 20.5t49.5 69t34.5 139t12 220.5t-12 220t-34.5 138.5t-49.5 68.5t-63 20l-68 -6v214zM450 699q25 23 68.5 23t69.5 -24t26 -63t-26 -62.5t-70 -23.5t-68.5 22.5t-24.5 63.5t25 64z" />
<glyph unicode="&#xfb39;" horiz-adv-x="492" d="M113 436v854h266v-596l-164 -258h-102zM-31 892q16 17 44.5 17t45.5 -18t17 -47t-17 -46.5t-45.5 -17.5t-44.5 17t-16 47.5t16 47.5z" />
<glyph unicode="&#xfb3a;" horiz-adv-x="821" d="M55 1283q119 27 235.5 27t191 -32.5t119 -84.5t72 -129t37 -154.5t9.5 -172.5v-1229h-266v1229q0 141 -35 238q-18 50 -51.5 78.5t-79.5 28.5q-83 0 -232 -21v222zM144 699q25 23 68.5 23t69.5 -24t26 -63t-26 -62.5t-70 -23.5t-68.5 22.5t-24.5 63.5t25 64z" />
<glyph unicode="&#xfb3b;" horiz-adv-x="793" d="M55 1283q119 27 235.5 27t191 -32.5t119 -84.5t72 -129t37 -154.5t9.5 -172.5v-215q0 -174 -53 -302q-29 -72 -74.5 -124t-118 -84t-165.5 -32q-150 0 -253 31v230q108 -33 232 -33q159 0 159 314v215q0 345 -159 345q-80 0 -232 -16v217zM144 699q25 23 68.5 23 t69.5 -24t26 -63t-26 -62.5t-70 -23.5t-68.5 22.5t-24.5 63.5t25 64z" />
<glyph unicode="&#xfb3c;" horiz-adv-x="823" d="M780 1290v-180l-169 -613l-102 -497h-258l102 497l159 578h-469v481h266v-266h471zM84 699q25 23 68.5 23t69.5 -24t26 -63t-26 -62.5t-70 -23.5t-68.5 22.5t-24.5 63.5t25 64z" />
<glyph unicode="&#xfb3e;" horiz-adv-x="1082" d="M545 1288.5q56 21.5 121.5 21.5t116.5 -21t84.5 -61t56.5 -89.5t34 -116.5q22 -125 22 -274v-748h-506v215h240v531q0 340 -139 340q-39 0 -73 -21.5t-54 -52.5q-45 -66 -58 -112l-6 -22l-76 -878h-265l70 837q4 41 4 83q0 126 -37 256l-36 114h253q15 -38 30 -90l21 -89 h14q11 29 37.5 66.5t58 63.5t87.5 47.5zM472 699q25 23 68.5 23t69.5 -24t26 -63t-26 -62.5t-70 -23.5t-68.5 22.5t-24.5 63.5t25 64z" />
<glyph unicode="&#xfb40;" horiz-adv-x="715" d="M290 1073q-24 14 -68 14t-120 -19v222q94 20 161.5 20t119.5 -10t88.5 -26.5t62.5 -44t41 -57t24 -72.5q14 -66 14 -174v-561q0 -94 -12.5 -185t-24.5 -136l-13 -44h-520v215h286q18 77 18 230v481q0 115 -57 147zM38 699q25 23 68.5 23t69.5 -24t26 -63t-26 -62.5 t-70 -23.5t-68.5 22.5t-24.5 63.5t25 64z" />
<glyph unicode="&#xfb41;" horiz-adv-x="1010" d="M505 1310q73 0 131.5 -24t97 -53.5t76.5 -81t65 -119t44 -167t17 -219.5t-17 -219.5t-44 -167t-65 -119.5t-76.5 -81.5t-82.5 -48t-78 -24.5t-68 -6t-68 6t-78 24.5t-82.5 48t-76.5 81.5t-65 120q-61 152 -61 386q0 123 44.5 247.5t100.5 176.5v8l-132 -9v213 q176 28 418 28zM514 1093q-38 0 -79 -9q-52 -72 -70.5 -174t-18.5 -248t12 -236.5t34.5 -139t49.5 -69t63 -20.5t63 20.5t49.5 69t34.5 139t12 220.5t-12 220t-34 138q-42 89 -104 89zM436 699q25 23 68.5 23t69.5 -24t26 -63t-26 -62.5t-70 -23.5t-68.5 22.5t-24.5 63.5 t25 64z" />
<glyph unicode="&#xfb43;" horiz-adv-x="1005" d="M77 684.5q-23 73.5 -23 177t35 192.5t95 144q121 112 288 112q73 0 131.5 -24t97 -53.5t76.5 -81t65 -119.5q61 -152 61 -386v-1138h-266v1138q0 262 -49 358q-24 48 -52 68.5t-70 20.5t-74.5 -29.5t-45.5 -73.5q-21 -72 -21 -126q0 -195 142 -221l38 -7l-51 -210l-53 7 q-50 7 -92 19t-91.5 42t-83.5 73.5t-57 117zM434 927q25 23 68.5 23t69.5 -24t26 -63t-26 -62.5t-70 -23.5t-68.5 22.5t-24.5 63.5t25 64z" />
<glyph unicode="&#xfb44;" horiz-adv-x="976" d="M77 684.5q-23 73.5 -23 177t35 192.5t95 144q121 112 288 112q73 0 131.5 -24t97 -53.5t76.5 -81t65 -119t44 -167t17 -219.5t-17 -219.5t-44 -167t-65 -119.5t-76.5 -81.5t-82.5 -48.5q-73 -30 -151 -30t-155 7t-113 14l-36 7v224q193 -35 309 -35q36 0 63 20.5t49.5 69 t34.5 139t12 220.5t-12 220t-34.5 138.5t-49.5 68.5t-69 20t-74.5 -29.5t-45.5 -73.5q-21 -72 -21 -126q0 -195 142 -221l38 -7l-51 -210l-53 7q-50 7 -92 19t-91.5 42t-83.5 73.5t-57 117zM410 927q25 23 68.5 23t69.5 -24t26 -63t-26 -62.5t-70 -23.5t-68.5 22.5 t-24.5 63.5t25 64z" />
<glyph unicode="&#xfb46;" horiz-adv-x="1003" d="M899 0h-831v215h346l172 -14v4l-166 254l-362 831h277l236 -559q41 52 64.5 111.5t33.5 164.5l24 282h267l-21 -238q-5 -53 -9.5 -88t-21.5 -107.5t-41.5 -127.5t-70.5 -121t-107 -115l210 -334v-158zM144 547q25 23 68.5 23t69.5 -24t26 -63t-26 -62.5t-70 -23.5 t-68.5 22.5t-24.5 63.5t25 64z" />
<glyph unicode="&#xfb47;" horiz-adv-x="1057" d="M765 34v-34h-264v34q0 186 77 471l148 570h-592v215h880v-166l-159 -609q-46 -177 -68 -286t-22 -195zM425 759q25 23 68.5 23t69.5 -24t26 -63t-26 -62.5t-70 -23.5t-68.5 22.5t-24.5 63.5t25 64zM134 -493v1265h266v-1265h-266z" />
<glyph unicode="&#xfb48;" horiz-adv-x="822" d="M43 1295q148 15 257 15t184 -19.5t120.5 -54t71.5 -93t35 -123.5t9 -159v-861h-267v862q0 127 -37.5 179t-151.5 52q-71 0 -221 -15v217zM164 699q25 23 68.5 23t69.5 -24t26 -63t-26 -62.5t-70 -23.5t-68.5 22.5t-24.5 63.5t25 64z" />
<glyph unicode="&#xfb49;" horiz-adv-x="1291" d="M509 0h-363l-103 1290h265l55 -664q68 4 99 46t39 135l38 483h263l-37 -480q-28 -361 -387 -374l19 -221h112q190 0 302 131.5t131 363.5l47 580h265l-48 -579q-12 -152 -48 -261q-42 -126 -107 -211q-35 -46 -88 -92.5t-117 -76.5q-144 -70 -337 -70zM577 453 q25 23 68.5 23t69.5 -24t26 -63t-26 -62.5t-70 -23.5t-68.5 22.5t-24.5 63.5t25 64z" />
<glyph unicode="&#xfb4a;" horiz-adv-x="1065" d="M240 -14q-38 -6 -91 -6t-117 27v214q31 -18 64 -18t50.5 13.5t25.5 39.5q11 40 11 108v704l-96 -19v213q20 5 56.5 13t156 21.5t221 13.5t161.5 -10t103.5 -28t75 -47.5t51.5 -64t32 -83.5q19 -83 19 -216v-861h-267v862q0 132 -40 181.5t-149 49.5q-35 0 -57 -1v-728 q0 -143 -14 -200q-15 -69 -35.5 -92.5t-42.5 -41.5t-51 -28t-67 -16zM504 699q25 23 68.5 23t69.5 -24t26 -63t-26 -62.5t-70 -23.5t-68.5 22.5t-24.5 63.5t25 64z" />
<glyph unicode="&#xfb4b;" horiz-adv-x="492" d="M113 1560q25 23 68.5 23t69.5 -24t26 -63t-26 -62.5t-70 -23.5t-68.5 22.5t-24.5 63.5t25 64zM113 0v1290h266v-1290h-266z" />
<glyph d="M235 1449h-470v83h470v-83z" />
</font>
</defs>
</svg>
