<!-- Generator: Adobe Illustrator 19.2.1, SVG Export Plug-In  -->
<svg version="1.1"
	 xmlns="http://www.w3.org/2000/svg" xmlns:xlink="http://www.w3.org/1999/xlink" xmlns:a="http://ns.adobe.com/AdobeSVGViewerExtensions/3.0/"
	 x="0px" y="0px" width="46.732px" height="41.543px" viewBox="0 0 46.732 41.543"
	 style="enable-background:new 0 0 46.732 41.543;" xml:space="preserve">
<style type="text/css">
	.st0{fill:#424953;}
</style>
<defs>
</defs>
<g>
	<path class="st0" d="M45.252,0H1.482C0.663,0,0,0.666,0,1.482v38.576c0,0.822,0.663,1.484,1.482,1.484h43.77
		c0.817,0,1.48-0.662,1.48-1.484V1.482C46.732,0.666,46.069,0,45.252,0z M35.979,3.213c1.094,0,1.978,0.887,1.978,1.98
		c0,1.093-0.884,1.977-1.978,1.977c-1.091,0-1.978-0.884-1.978-1.977C34.002,4.1,34.889,3.213,35.979,3.213z M30.168,3.213
		c1.095,0,1.979,0.887,1.979,1.98c0,1.093-0.885,1.977-1.979,1.977s-1.976-0.884-1.976-1.977C28.192,4.1,29.073,3.213,30.168,3.213z
		 M43.764,38.572H2.966V10.389h40.798V38.572z M41.789,7.169c-1.093,0-1.978-0.884-1.978-1.977c0-1.093,0.885-1.98,1.978-1.98
		s1.975,0.887,1.975,1.98C43.764,6.285,42.882,7.169,41.789,7.169z"/>
	<g>
		<path class="st0" d="M33.438,17.13h-4.682c1.333,0.888,2.399,2.161,3.031,3.651h1.65c1.753,0,3.184,1.43,3.184,3.185
			c0,1.753-1.431,3.184-3.184,3.184h-9.341c-1.754,0-3.182-1.431-3.182-3.184c0-0.675,0.214-1.294,0.569-1.809h-3.972
			c-0.162,0.575-0.252,1.184-0.252,1.809c0,3.771,3.067,6.838,6.836,6.838h9.341c3.774,0,6.839-3.067,6.839-6.838
			S37.213,17.13,33.438,17.13z"/>
		<path class="st0" d="M16.715,27.149h-1.818c-1.759,0-3.189-1.431-3.189-3.184c0-1.755,1.431-3.185,3.189-3.185h0.941h8.398
			c1.751,0,3.181,1.43,3.181,3.185c0,0.2-0.024,0.394-0.059,0.583c-0.102,0.514-0.322,0.985-0.641,1.38h4.062
			c0.134-0.431,0.208-0.887,0.245-1.347h0.016c0.021-0.201,0.035-0.407,0.035-0.616c0-3.771-3.071-6.836-6.839-6.836h-8.398h-0.941
			c-3.773,0-6.842,3.065-6.842,6.836s3.068,6.838,6.842,6.838h4.958C18.466,29.937,17.371,28.66,16.715,27.149z"/>
	</g>
</g>
</svg>