<!-- Generator: Adobe Illustrator 19.2.1, SVG Export Plug-In  -->
<svg version="1.1"
	 xmlns="http://www.w3.org/2000/svg" xmlns:xlink="http://www.w3.org/1999/xlink" xmlns:a="http://ns.adobe.com/AdobeSVGViewerExtensions/3.0/"
	 x="0px" y="0px" width="52.595px" height="52.158px" viewBox="0 0 52.595 52.158"
	 style="enable-background:new 0 0 52.595 52.158;" xml:space="preserve">
<style type="text/css">
	.st0{fill:#FFFFFF;}
</style>
<defs>
</defs>
<g>
	<path class="st0" d="M43.303,24.767H11.092v17.338h32.211V24.767z M34.507,36.746l-2.437,2.435l-3.071-3.072l-1.698,3.11
		l-2.559-9.798l9.799,2.559l-3.107,1.701L34.507,36.746z"/>
	<path class="st0" d="M51.231,44.066l-2.266-0.025H48.21V31.562c0.284-0.242,0.565-0.491,0.817-0.768
		c2.186-1.984,3.568-4.837,3.568-8.022c0-5.989-4.854-10.843-10.844-10.843c-1.156,0-2.276,0.183-3.321,0.524
		C37.738,5.461,31.84,0,24.671,0c-7.636,0-13.827,6.19-13.827,13.824c0,0.928,0.096,1.836,0.27,2.711H8.541
		c-4.72,0-8.541,3.824-8.541,8.54c0,3.896,2.615,7.175,6.188,8.195v10.771h-0.76H3.121L2.819,46.33
		c-0.017,0.113-0.045,0.312-0.045,0.558v0.663c0,2.542,2.065,4.607,4.606,4.607H47.01c2.539,0,4.604-2.065,4.604-4.607v-0.663
		c0-0.263-0.027-0.474-0.047-0.587L51.231,44.066z M8.814,23.482c0-0.51,0.411-0.921,0.914-0.921h34.936
		c0.503,0,0.921,0.411,0.921,0.921v20.559H33.898h-2.37l-0.054,0.551h-8.523L22.9,44.041h-2.403H8.814V23.482z M48.987,47.551
		c0,1.087-0.884,1.979-1.978,1.979H7.381c-1.087,0-1.977-0.892-1.977-1.979v-0.663c0-0.074,0.013-0.145,0.024-0.218h15.069
		c0.025,0.31,0.28,0.551,0.597,0.551H33.3c0.318,0,0.569-0.241,0.599-0.551h15.067c0.009,0.073,0.021,0.144,0.021,0.218V47.551z"/>
</g>
</svg>