<!-- Generator: Adobe Illustrator 19.2.1, SVG Export Plug-In  -->
<svg version="1.1"
	 xmlns="http://www.w3.org/2000/svg" xmlns:xlink="http://www.w3.org/1999/xlink" xmlns:a="http://ns.adobe.com/AdobeSVGViewerExtensions/3.0/"
	 x="0px" y="0px" width="34.14px" height="50.473px" viewBox="0 0 34.14 50.473" style="enable-background:new 0 0 34.14 50.473;"
	 xml:space="preserve">
<style type="text/css">
	.st0{fill:#FFFFFF;}
</style>
<defs>
</defs>
<g>
	<path class="st0" d="M9.812,14.192c0,0.605-0.491,1.094-1.095,1.094h-4.24c-0.604,0-1.095-0.489-1.095-1.094v-3.417
		c0-0.603,0.491-1.093,1.095-1.093h4.24c0.604,0,1.095,0.489,1.095,1.093V14.192z"/>
	<path class="st0" d="M9.812,21.438c0,0.604-0.491,1.093-1.095,1.093h-4.24c-0.604,0-1.095-0.488-1.095-1.093v-3.417
		c0-0.603,0.491-1.093,1.095-1.093h4.24c0.604,0,1.095,0.49,1.095,1.093V21.438z"/>
	<path class="st0" d="M8.362,26.878c-0.354-0.751-0.354-1.59-0.004-2.359c0.054-0.122,0.134-0.234,0.208-0.345h-4.09
		c-0.604,0-1.095,0.489-1.095,1.093v3.417c0,0.604,0.491,1.092,1.095,1.092h4.24c0.229,0,0.43-0.086,0.606-0.209
		C8.892,28.032,8.398,26.952,8.362,26.878z"/>
	<path class="st0" d="M12.59,21.942c0.586,0,1.204,0.152,1.815,0.466v-5.479h-1.587c-0.605,0-1.092,0.49-1.092,1.093v3.417
		c0,0.216,0.077,0.407,0.184,0.575C12.123,21.973,12.351,21.942,12.59,21.942z"/>
	<path class="st0" d="M12.818,15.286h1.587v-0.134c0-2.155,1.646-3.913,3.745-4.13v-0.247c0-0.603-0.488-1.093-1.097-1.093h-4.235
		c-0.605,0-1.092,0.489-1.092,1.093v3.417C11.727,14.796,12.214,15.286,12.818,15.286z"/>
	<path class="st0" d="M16.605,44.508l-2.189-2.152c-0.145-0.14-0.278-0.296-0.408-0.461c0.171,0.309,0.279,0.657,0.279,1.04
		c0,1.183-0.956,2.148-2.144,2.148c-1.18,0-2.14-0.966-2.14-2.148c0-1.183,0.96-2.145,2.14-2.145c0.67,0,1.258,0.312,1.651,0.793
		c-0.067-0.107-0.142-0.202-0.208-0.316c-0.779-0.953-1.425-1.89-1.959-2.814H1.621V7.27h21.045v7.017
		c0.061,0.279,0.09,0.567,0.09,0.865v2.389c0.117-0.008,0.235-0.012,0.35-0.012c0.41,0,0.809,0.066,1.186,0.177V3.699
		c0-2.041-1.66-3.699-3.702-3.699H3.697C1.656,0,0,1.658,0,3.699v40.406c0,2.046,1.656,3.705,3.697,3.705h12.908V44.508z
		 M8.961,2.695h6.364c0.175,0,0.328,0.217,0.328,0.485c0,0.275-0.153,0.485-0.328,0.485H8.961c-0.18,0-0.32-0.21-0.32-0.485
		C8.641,2.912,8.781,2.695,8.961,2.695z"/>
	<path class="st0" d="M34.137,32.896c0.008-0.275,0-0.551-0.024-0.818v-5.915c0-1.102-0.89-1.994-1.981-1.994
		c-1.098,0-1.992,0.892-1.992,1.994v0.452c-0.176-0.061-0.351-0.119-0.53-0.169v-2.994c0-1.095-0.896-1.992-1.993-1.992
		c-1.098,0-1.986,0.897-1.986,1.992v1.717c-0.184-0.062-0.358-0.124-0.536-0.185v-3.28c0-1.101-0.893-1.99-1.987-1.99
		c-1.101,0-1.993,0.89-1.993,1.99v2.541c-0.186,0.031-0.362,0.069-0.542,0.127v-9.22c0-1.095-0.892-1.988-1.987-1.988
		c-1.101,0-1.993,0.893-1.993,1.988v16.433c-0.436-0.944-0.443-2.142-0.64-3.027c-0.732-3.365-2.599-4.736-3.739-4.372
		c-0.266,0.078-2.297,0.847-1.867,1.771c0.264,0.567,1.646,3.763,1.807,7.234c0.115,2.478,1.671,4.946,3.26,6.844
		c0.139,0.279,0.314,0.538,0.538,0.759l2.845,2.798v6.881h13.378v-7.062c1.036-1.582,1.698-3.529,1.774-5.287
		c0.063-1.717,0.127-3.43,0.189-5.147c0.002-0.019-0.006-0.033,0-0.049C34.135,32.92,34.137,32.908,34.137,32.896z"/>
</g>
</svg>