<!-- Generator: Adobe Illustrator 19.2.1, SVG Export Plug-In  -->
<svg version="1.1"
	 xmlns="http://www.w3.org/2000/svg" xmlns:xlink="http://www.w3.org/1999/xlink" xmlns:a="http://ns.adobe.com/AdobeSVGViewerExtensions/3.0/"
	 x="0px" y="0px" width="53.031px" height="56.942px" viewBox="0 0 53.031 56.942"
	 style="enable-background:new 0 0 53.031 56.942;" xml:space="preserve">
<style type="text/css">
	.st0{fill:#424953;}
</style>
<defs>
</defs>
<g>
	<path class="st0" d="M30.69,6.002c1.455-1.785,1.469-4.178,0.027-5.361c-1.442-1.174-3.793-0.691-5.249,1.09
		c-1.451,1.779-1.468,4.184-0.025,5.361C26.88,8.272,29.229,7.779,30.69,6.002z"/>
	<path class="st0" d="M7.538,30.955c-0.057,0.16,0.022,0.335,0.182,0.392l0.503,0.188c0.159,0.056,0.331-0.024,0.389-0.18
		c0.013-0.034,0.018-0.066,0.018-0.104c0.543,0.14,1.121-0.146,1.318-0.689l1.843-4.983c0.217-0.577-0.08-1.225-0.661-1.438
		l-1.44-0.534l0.065-0.173c0.292-0.797-0.115-1.683-0.908-1.977l-2.014-0.741c-0.796-0.299-1.684,0.109-1.975,0.909l-0.065,0.175
		l-1.442-0.535c-0.579-0.216-1.222,0.08-1.438,0.66l-1.842,4.982c-0.204,0.541,0.046,1.132,0.551,1.386
		c-0.021,0.024-0.04,0.053-0.052,0.087c-0.06,0.155,0.022,0.33,0.179,0.387l0.502,0.187c0.156,0.062,0.331-0.019,0.388-0.18
		c0.017-0.026,0.017-0.057,0.017-0.085l5.935,2.195C7.571,30.904,7.552,30.929,7.538,30.955z M5.58,22.086l0.064-0.175
		c0.136-0.36,0.537-0.545,0.898-0.41l2.012,0.744c0.362,0.131,0.549,0.535,0.409,0.896L8.9,23.317L5.58,22.086z"/>
	<path class="st0" d="M42.687,41.064l-1.441,0.257c-0.193-0.487-0.425-0.956-0.683-1.399l1.078-0.91
		c0.261-0.22,0.294-0.609,0.077-0.866l-1.583-1.873c-0.218-0.256-0.607-0.291-0.867-0.074l-1.119,0.947
		c-0.407-0.322-0.838-0.615-1.286-0.873l0.48-1.332c0.11-0.319-0.056-0.669-0.372-0.783l-2.305-0.836
		c-0.318-0.112-0.672,0.054-0.787,0.37l-0.498,1.38c-0.508-0.076-1.025-0.116-1.553-0.109l-0.248-1.39
		c-0.063-0.338-0.38-0.562-0.711-0.502l-1.941,0.347c0.519-1.463,1.121-3.278,1.739-5.179l0.936-2.9l0.027-0.091l0.014-0.044
		l0.008-0.012v-0.006c-0.965-1.512,2.158,3.374-2.162-3.39l-0.023-0.004l-0.189-0.021l-0.375-0.05l-0.741-0.084l-1.451-0.172
		c-0.908-0.112-1.771-0.208-2.563-0.301c0.571-1.608,1.136-3.218,1.69-4.831l0.268,1.179l0.116,0.496l0.065,0.278l0.003,0.02
		c0,0,1.582,1.766,1.302,1.453h0.006l0.058,0.025l0.118,0.047l0.944,0.383l7.571,3.075c0.602-1.457,1.154-2.937,1.655-4.437
		l-7.727-2.646l-0.171-0.057l-0.474-1.646l-1.137-3.922c-0.104-0.359-0.664-1.398-0.836-1.494c-0.217-0.119-0.44-0.224-0.66-0.338
		l0.314,1.313l-1.279,0.478l-0.062,1.477l-3.025,4.213l2.237-6.362l0.273-0.19l0.317-1.517l-0.754-0.276l-0.789,1.34l0.077,0.321
		l-2.63,6.232l0.579-5.129l0.952-1.149l-0.638-1.186l1.254-0.878l0.014-0.053c-0.822-0.297-1.656-0.561-2.518-0.776
		c-1.039-0.296-1.545-0.477-2.341-0.015l-7.323,4.332c-3.025,3.82-3.371,5.239-5.184,7.974c1.341,0.836,2.714,1.615,4.112,2.344
		c1.047-2.141,2.951-5.643,3.347-6.692l3.567-2.382c-1.428,3.468-2.836,6.934-4.198,10.428c-0.011,0.031-0.011,0.065-0.021,0.1
		c0.946,0.357,1.894,0.716,2.842,1.072c-0.618,2.425-1.293,5.05-1.69,6.645l-4.307,8.441l4.026,2.204
		c1.528-3.095,4.106-6.223,5.549-11.104c0.422-1.521,0.807-2.906,1.112-4.03l1.341,0.123c0.086,0.03,0.167,0.064,0.249,0.096
		c0.012-0.023,0.021-0.046,0.029-0.071l3.792,0.354l-0.343,1.206l-1.277,4.405l4.329,1.394l-0.422,0.073
		c-0.337,0.058-0.557,0.379-0.498,0.713l0.258,1.443c-0.484,0.192-0.954,0.418-1.395,0.678l-0.911-1.079
		c-0.22-0.259-0.604-0.292-0.869-0.072l-1.873,1.584c-0.258,0.214-0.287,0.604-0.071,0.863l0.948,1.117
		c-0.323,0.412-0.617,0.835-0.872,1.288l-1.329-0.48c-0.322-0.111-0.678,0.052-0.787,0.371l-0.837,2.306
		c-0.114,0.318,0.051,0.67,0.371,0.783l1.38,0.5c-0.078,0.508-0.116,1.029-0.113,1.55l-1.392,0.251
		c-0.333,0.057-0.556,0.383-0.497,0.712l0.434,2.413c0.063,0.334,0.376,0.557,0.713,0.497l1.445-0.259
		c0.188,0.49,0.416,0.959,0.678,1.399l-1.081,0.913c-0.255,0.218-0.292,0.606-0.072,0.868l1.579,1.868
		c0.216,0.258,0.609,0.292,0.863,0.073l1.126-0.944c0.407,0.323,0.837,0.614,1.286,0.871l-0.479,1.334
		c-0.119,0.317,0.047,0.668,0.368,0.782l2.308,0.833c0.313,0.117,0.668-0.049,0.781-0.368l0.5-1.379
		c0.504,0.078,1.027,0.111,1.551,0.106l0.251,1.398c0.057,0.33,0.378,0.554,0.709,0.494l2.414-0.433
		c0.333-0.057,0.555-0.379,0.496-0.711l-0.258-1.442c0.488-0.192,0.958-0.418,1.401-0.683l0.908,1.081
		c0.221,0.257,0.609,0.295,0.868,0.073l1.875-1.583c0.257-0.217,0.288-0.605,0.069-0.859l-0.943-1.128
		c0.32-0.407,0.615-0.835,0.874-1.288l1.332,0.483c0.315,0.117,0.666-0.052,0.784-0.369l0.829-2.307
		c0.114-0.317-0.049-0.67-0.365-0.784l-1.382-0.499c0.078-0.507,0.117-1.023,0.109-1.549l1.395-0.25
		c0.331-0.061,0.556-0.381,0.492-0.715l-0.429-2.408C43.335,41.225,43.021,41.002,42.687,41.064z M39.338,43.672
		c0.256,1.421,0.083,2.816-0.408,4.071l-2.587-1.779c0.121-0.563,0.144-1.158,0.032-1.763c-0.222-1.258-0.944-2.296-1.924-2.958
		l0.253-3.252C37.04,38.933,38.861,41.011,39.338,43.672z M30.438,37.594l-0.248,3.193c-1.741,0.705-2.866,2.428-2.82,4.323
		l-2.873,1.371c-0.012-0.047-0.027-0.094-0.035-0.147C23.734,42.273,26.404,38.391,30.438,37.594z M33.231,52.438
		c-2.561,0.459-5.052-0.432-6.742-2.159l3.002-1.437c0.926,0.583,2.05,0.843,3.209,0.635c0.297-0.05,0.574-0.134,0.841-0.236
		l2.762,1.894C35.416,51.771,34.379,52.236,33.231,52.438z"/>
	<path class="st0" d="M19.364,49.54l-1.508-0.548c-0.027-0.008-0.051-0.006-0.076-0.008c-0.008-0.248-0.023-0.496-0.067-0.748
		c-0.072-0.385-0.188-0.751-0.342-1.092l1.188-0.998c0.207-0.175,0.234-0.484,0.059-0.692l-1.352-1.601
		c-0.175-0.211-0.487-0.237-0.693-0.063l-1.225,1.031c-0.022,0.017-0.033,0.041-0.051,0.058c-0.541-0.298-1.152-0.496-1.793-0.563
		l-0.274-1.526c-0.046-0.269-0.302-0.445-0.571-0.396l-2.057,0.366c-0.269,0.048-0.451,0.307-0.4,0.573l0.279,1.579
		c0.006,0.024,0.02,0.047,0.027,0.07c-0.544,0.331-1.014,0.762-1.386,1.272l-1.457-0.527c-0.258-0.091-0.541,0.039-0.633,0.297
		l-0.713,1.97c-0.09,0.257,0.039,0.538,0.3,0.63l1.507,0.545c0.024,0.009,0.049,0.006,0.075,0.009
		c0.004,0.251,0.023,0.499,0.068,0.751c0.069,0.385,0.184,0.747,0.337,1.089l-1.188,0.999c-0.204,0.175-0.234,0.486-0.055,0.694
		l1.347,1.602c0.177,0.209,0.487,0.233,0.695,0.058l1.228-1.031c0.018-0.019,0.025-0.039,0.043-0.058
		c0.549,0.303,1.159,0.498,1.797,0.569l0.271,1.523c0.05,0.267,0.309,0.445,0.575,0.399l2.063-0.374
		c0.264-0.046,0.446-0.303,0.395-0.571l-0.278-1.577c-0.007-0.025-0.021-0.046-0.027-0.068c0.546-0.333,1.015-0.764,1.384-1.272
		l1.461,0.529c0.254,0.091,0.541-0.043,0.631-0.299l0.71-1.972C19.751,49.91,19.614,49.629,19.364,49.54z M10.732,49.487
		c-0.225-1.246,0.604-2.438,1.851-2.658c1.247-0.227,2.438,0.604,2.659,1.848c0.225,1.244-0.606,2.438-1.849,2.658
		C12.146,51.558,10.959,50.729,10.732,49.487z"/>
	<path class="st0" d="M52.772,36.268l-1.202-0.432c-0.024-0.009-0.046-0.006-0.067-0.009c-0.004-0.195-0.008-0.395-0.049-0.594
		c-0.051-0.305-0.152-0.592-0.272-0.864l0.949-0.798c0.164-0.141,0.188-0.39,0.047-0.556l-1.073-1.273
		c-0.142-0.167-0.39-0.188-0.557-0.047l-0.972,0.822c-0.021,0.013-0.029,0.035-0.046,0.058c-0.438-0.239-0.912-0.393-1.42-0.448
		l-0.216-1.23c-0.04-0.215-0.243-0.354-0.458-0.316l-1.638,0.293c-0.212,0.038-0.356,0.243-0.317,0.458l0.224,1.251
		c0.001,0.024,0.014,0.043,0.021,0.063c-0.431,0.263-0.806,0.607-1.099,1.011l-1.164-0.424c-0.205-0.073-0.429,0.03-0.506,0.237
		l-0.567,1.567c-0.067,0.205,0.035,0.431,0.239,0.5l1.197,0.434c0.022,0.009,0.049,0.009,0.067,0.012
		c0.009,0.196,0.014,0.396,0.05,0.598c0.053,0.303,0.152,0.586,0.273,0.858l-0.951,0.8c-0.166,0.14-0.186,0.386-0.046,0.552
		l1.076,1.271c0.139,0.171,0.387,0.189,0.551,0.051l0.976-0.824c0.022-0.014,0.032-0.039,0.047-0.058
		c0.434,0.241,0.91,0.394,1.416,0.447l0.219,1.233c0.043,0.211,0.245,0.351,0.456,0.313l1.643-0.293
		c0.211-0.037,0.354-0.243,0.318-0.45l-0.227-1.262c-0.004-0.021-0.017-0.038-0.024-0.057c0.435-0.265,0.81-0.607,1.102-1.01
		l1.165,0.42c0.207,0.073,0.43-0.03,0.502-0.236l0.568-1.567C53.081,36.569,52.973,36.343,52.772,36.268z M45.903,36.226
		c-0.177-0.989,0.484-1.938,1.478-2.116c0.987-0.177,1.933,0.483,2.112,1.474c0.178,0.992-0.479,1.937-1.473,2.114
		C47.029,37.873,46.084,37.217,45.903,36.226z"/>
</g>
</svg>