<!-- Generator: Adobe Illustrator 19.2.1, SVG Export Plug-In  -->
<svg version="1.1"
	 xmlns="http://www.w3.org/2000/svg" xmlns:xlink="http://www.w3.org/1999/xlink" xmlns:a="http://ns.adobe.com/AdobeSVGViewerExtensions/3.0/"
	 x="0px" y="0px" width="51.789px" height="43.106px" viewBox="0 0 51.789 43.106"
	 style="enable-background:new 0 0 51.789 43.106;" xml:space="preserve">
<style type="text/css">
	.st0{fill:#424953;}
</style>
<defs>
</defs>
<g>
	<g>
		<ellipse class="st0" cx="25.343" cy="10.098" rx="2.337" ry="2.887"/>
		<path class="st0" d="M25.343,19.49c0.27,0,0.531-0.016,0.794-0.041c1.563-0.156,2.99-0.772,4.146-1.708l-0.214-2.709
			c-0.065-0.758-0.471-1.134-1.389-1.29c-0.027-0.005-0.993-0.13-1.374-0.157l-0.007,0.033l1.001,0.848l-1.197,0.6l0.554,0.951
			l-1.525,3.365l-0.246-4.752l0.221-0.192l-0.29-0.937H24.87l-0.288,0.937l0.216,0.192l-0.245,4.752l-1.524-3.365l0.555-0.951
			l-1.196-0.6l0.999-0.848l-0.008-0.033c-0.379,0.029-1.061,0.108-1.276,0.161c-0.006,0-0.012-0.003-0.021-0.003
			c-0.745,0.112-1.324,0.53-1.389,1.29l-0.218,2.764c1.144,0.903,2.543,1.499,4.074,1.653C24.811,19.475,25.075,19.49,25.343,19.49z
			"/>
	</g>
	<path class="st0" d="M17.758,12.554h-2.486c-0.27-0.951-1.144-1.649-2.179-1.649c-1.249,0-2.268,1.015-2.268,2.265
		c0,1.25,1.019,2.266,2.268,2.266c1.046,0,1.929-0.715,2.187-1.683h2.477V12.554z M13.094,14.238c-0.591,0-1.068-0.478-1.068-1.068
		c0-0.587,0.478-1.065,1.068-1.065c0.588,0,1.067,0.478,1.067,1.065C14.16,13.76,13.681,14.238,13.094,14.238z"/>
	<path class="st0" d="M18.459,16.449l-2.153,1.243c-0.708-0.687-1.814-0.856-2.711-0.338c-1.082,0.625-1.454,2.014-0.829,3.097
		c0.624,1.081,2.013,1.455,3.096,0.828c0.906-0.523,1.312-1.585,1.053-2.551l2.145-1.24L18.459,16.449z M15.262,20.241
		c-0.511,0.295-1.164,0.12-1.459-0.39c-0.294-0.509-0.119-1.163,0.391-1.456c0.51-0.296,1.163-0.12,1.458,0.389
		C15.947,19.294,15.77,19.947,15.262,20.241z"/>
	<path class="st0" d="M21.014,19.474l-1.243,2.153c-0.956-0.242-1.999,0.165-2.516,1.062c-0.625,1.083-0.253,2.472,0.829,3.097
		c1.083,0.623,2.471,0.253,3.094-0.831c0.524-0.907,0.346-2.028-0.363-2.736l1.237-2.146L21.014,19.474z M20.141,24.354
		c-0.294,0.51-0.949,0.688-1.457,0.392c-0.509-0.295-0.685-0.947-0.39-1.457c0.294-0.51,0.948-0.685,1.456-0.392
		C20.26,23.193,20.434,23.847,20.141,24.354z"/>
	<path class="st0" d="M24.742,20.815V23.3c-0.952,0.271-1.65,1.144-1.65,2.179c-0.001,1.251,1.014,2.267,2.265,2.267
		s2.267-1.016,2.267-2.266c0-1.049-0.716-1.929-1.683-2.188v-2.477H24.742z M26.423,25.479c0.001,0.589-0.477,1.067-1.067,1.067
		c-0.587,0-1.065-0.478-1.065-1.066c0-0.589,0.477-1.068,1.065-1.068C25.946,24.414,26.423,24.892,26.423,25.479z"/>
	<path class="st0" d="M28.636,20.114l1.242,2.151c-0.687,0.712-0.855,1.816-0.338,2.712c0.625,1.083,2.014,1.456,3.097,0.83
		c1.081-0.625,1.453-2.013,0.829-3.094c-0.525-0.908-1.585-1.314-2.552-1.055l-1.241-2.146L28.636,20.114z M32.427,23.313
		c0.295,0.51,0.12,1.161-0.39,1.456c-0.508,0.293-1.162,0.119-1.456-0.39c-0.294-0.51-0.119-1.163,0.39-1.458
		C31.479,22.625,32.133,22.801,32.427,23.313z"/>
	<path class="st0" d="M31.659,17.556l2.154,1.244c-0.241,0.96,0.166,1.999,1.062,2.518c1.081,0.626,2.471,0.253,3.096-0.829
		c0.624-1.084,0.254-2.47-0.829-3.095c-0.909-0.523-2.029-0.345-2.738,0.364l-2.145-1.238L31.659,17.556z M36.541,18.432
		c0.511,0.294,0.684,0.948,0.392,1.455c-0.293,0.51-0.948,0.686-1.457,0.392c-0.51-0.295-0.685-0.949-0.391-1.456
		C35.379,18.312,36.033,18.138,36.541,18.432z"/>
	<path class="st0" d="M33,13.832h2.488c0.268,0.952,1.142,1.649,2.175,1.65c1.252,0.001,2.269-1.017,2.269-2.267
		c0-1.249-1.017-2.264-2.266-2.267c-1.049,0.002-1.928,0.718-2.191,1.684L33,12.634V13.832z M37.665,12.149
		c0.59-0.002,1.066,0.479,1.066,1.066c0,0.589-0.477,1.066-1.064,1.066c-0.588,0-1.069-0.477-1.069-1.066
		C36.598,12.626,37.079,12.149,37.665,12.149z"/>
	<g>
		<path class="st0" d="M25.379,21.41c-4.593,0-8.332-3.737-8.332-8.331c0-4.594,3.739-8.333,8.332-8.333
			c4.594,0,8.33,3.739,8.33,8.333C33.71,17.672,29.974,21.41,25.379,21.41L25.379,21.41z M25.379,5.845
			c-3.988,0-7.234,3.245-7.234,7.234c0,3.988,3.245,7.232,7.234,7.232c3.987,0,7.233-3.244,7.233-7.232
			C32.612,9.09,29.367,5.845,25.379,5.845L25.379,5.845z"/>
	</g>
</g>
<g>
	<g>
		<rect x="19.052" y="38.4" class="st0" width="13.686" height="2.799"/>
		<path class="st0" d="M50.5,0H1.291C0.574,0,0,0.577,0,1.288v35.033c0,0.709,0.574,1.284,1.291,1.284H50.5
			c0.712,0,1.289-0.575,1.289-1.284V1.288C51.789,0.577,51.212,0,50.5,0z M48.579,29.393H3.206V3.1h45.373V29.393z"/>
		<path class="st0" d="M36.01,41.824H15.778c-0.512,0-0.93,0.419-0.93,0.935v0.348h22.093v-0.348
			C36.941,42.243,36.522,41.824,36.01,41.824z"/>
	</g>
</g>
</svg>