<svg id="Layer_1" data-name="Layer 1" xmlns="http://www.w3.org/2000/svg" xmlns:xlink="http://www.w3.org/1999/xlink" viewBox="0 0 161.09 85.94"><defs><style>.cls-1{fill:url(#linear-gradient);}</style><linearGradient id="linear-gradient" x1="15.44" y1="96.11" x2="141.5" y2="23.33" gradientUnits="userSpaceOnUse"><stop offset="0.3" stop-color="#4154a5"/><stop offset="1" stop-color="#5bc9e0"/></linearGradient></defs><title>M</title><path class="cls-1" d="M122.27,52.22A27.34,27.34,0,0,1,144,41.58a23.05,23.05,0,0,1,6.9.94l-20.61-29c-3.17-4.68-10.47-9.24-17.38-8.9a14.42,14.42,0,0,0-2.12.22A20.94,20.94,0,0,0,96.91,13.7L78.47,40.52c-.34.54-.78,1.18-1.25,1.81a27.49,27.49,0,0,1-6.68,6.37,27.72,27.72,0,0,1-24.17,3.17L66.61,81.31a21.06,21.06,0,0,0,11.51,8.3,20.57,20.57,0,0,0,2.75.57c.79.12,1.45.18,2.11.21h.82c.66,0,1,0,1.29,0,.64,0,1.29-.09,2-.19A20.84,20.84,0,0,0,90,89.6a21.06,21.06,0,0,0,11.51-8.3L114.19,62.8ZM70.82,39.1l9.59-12.27L72,14.23A21,21,0,0,0,55.72,5.15c-.29,0-.58,0-.86,0s-.39,0-.58,0l-.49,0-.57,0A20.84,20.84,0,0,0,33.58,24.71c0,.15,0,.3,0,.46,0,.31,0,.62,0,.93,0,.11,0,.22,0,.33,0,.55,0,1.11.08,1.66,0,.07,0,.13,0,.2s0,.4,0,.6a20.52,20.52,0,0,0,7.25,13.27l.24.2c.14.11.27.24.41.35s.4.27.59.41.64.45,1,.66l.7.43c.46.27.93.52,1.41.76l.43.21q.91.42,1.86.75l.13,0a20.51,20.51,0,0,0,6.61,1.1h0c.5,0,1,0,1.5-.08l.59,0A21.26,21.26,0,0,0,59,46.58c.33-.07.64-.21,1-.3s.72-.22,1.07-.34A20.76,20.76,0,0,0,70.82,39.1ZM45.39,64.27c1,4.63,1.28,11.42-3.07,17.5a21.13,21.13,0,0,1-17.55,8.76,21.05,21.05,0,0,1-17.5-8.76C2.91,75.68,3.19,68.89,4.2,64.27c2-9.38,16.2-26.3,20.6-31.23C29.19,38,43.36,54.88,45.39,64.27ZM164.63,69.4c0-.1,0-.21,0-.31s0-.22,0-.33c0-.31,0-.61,0-.91,0-.15,0-.3,0-.45a20.78,20.78,0,0,0-19.94-19.08l-.58,0-.5,0-.59,0c-.29,0-.58,0-.88,0-6.7.34-12,4.14-15.8,9.43L118.08,69.4l8.22,11.66c3.81,5.29,9.1,9.09,15.8,9.43.29,0,.58,0,.88,0l.59,0,.5,0,.58,0A20.78,20.78,0,0,0,164.6,71.39c0-.15,0-.3,0-.45,0-.3,0-.6,0-.91,0-.11,0-.22,0-.33S164.64,69.5,164.63,69.4Z" transform="translate(-3.58 -4.59)"/></svg>