<svg id="Layer_1" data-name="Layer 1" xmlns="http://www.w3.org/2000/svg" xmlns:xlink="http://www.w3.org/1999/xlink" viewBox="0 0 207.88 29.34"><defs><style>.cls-1{fill:url(#linear-gradient);}.cls-2{fill:#1a171b;}</style><linearGradient id="linear-gradient" x1="4.25" y1="31.34" x2="41.53" y2="9.82" gradientUnits="userSpaceOnUse"><stop offset="0.3" stop-color="#2338e8"/><stop offset="1" stop-color="#5bc9e1"/></linearGradient></defs><title>MobiSoft_Logo</title><path class="cls-1" d="M35.84,18.37a8.08,8.08,0,0,1,6.42-3.15,6.82,6.82,0,0,1,2,.28L38.21,6.92a6.43,6.43,0,0,0-5.14-2.63,4.26,4.26,0,0,0-.63.06A6.19,6.19,0,0,0,28.34,7l-5.45,7.93c-.1.16-.23.35-.37.54a8.09,8.09,0,0,1-9.12,2.82l6,8.71a6.23,6.23,0,0,0,3.4,2.45,6.08,6.08,0,0,0,.81.17c.23,0,.43.05.63.06h.63c.19,0,.38,0,.58-.06a6.16,6.16,0,0,0,.86-.17A6.23,6.23,0,0,0,29.69,27l3.76-5.47ZM20.63,14.49l2.84-3.63L21,7.13a6.22,6.22,0,0,0-4.82-2.68h-.74a6.16,6.16,0,0,0-5.81,5.78s0,.09,0,.14,0,.18,0,.28,0,.07,0,.1,0,.33,0,.49v.06c0,.06,0,.12,0,.18a6.07,6.07,0,0,0,2.15,3.92l.07.06.12.1.17.12.29.2.21.13.42.22.13.06q.27.12.55.22h0a6.06,6.06,0,0,0,2,.33h0l.44,0h.18a6.29,6.29,0,0,0,.75-.12l.28-.09.32-.1A6.14,6.14,0,0,0,20.63,14.49Zm-7.52,7.44a6.42,6.42,0,0,1-.91,5.18A6.25,6.25,0,0,1,7,29.69,6.23,6.23,0,0,1,1.84,27.1a6.42,6.42,0,0,1-.91-5.18c.6-2.77,4.79-7.78,6.09-9.23C8.32,14.15,12.51,19.15,13.11,21.93Zm35.26,1.52s0-.06,0-.09,0-.06,0-.1,0-.18,0-.27,0-.09,0-.13a6.14,6.14,0,0,0-5.9-5.64h-.75A6.15,6.15,0,0,0,37,20L34.6,23.45,37,26.9a6.15,6.15,0,0,0,4.67,2.79h.75A6.14,6.14,0,0,0,48.36,24s0-.09,0-.13,0-.18,0-.27,0-.06,0-.1S48.37,23.48,48.37,23.45Z" transform="translate(-0.74 -0.36)"/><path class="cls-2" d="M84.58,29.28a1.42,1.42,0,0,1-1.42-1.42V18.43c0-3-1.6-4.72-4.5-4.72a4.59,4.59,0,0,0-4.8,4.8v9.35a1.42,1.42,0,0,1-1.42,1.42H71.11a1.42,1.42,0,0,1-1.42-1.42V18.43c0-3-1.59-4.72-4.48-4.72a4.59,4.59,0,0,0-4.8,4.8v9.35A1.42,1.42,0,0,1,59,29.28H57.64a1.42,1.42,0,0,1-1.42-1.42V11.44A1.42,1.42,0,0,1,57.64,10H59a1.42,1.42,0,0,1,1.42,1.42v0a8.25,8.25,0,0,1,5.35-1.81,8,8,0,0,1,6.72,3.13,8.28,8.28,0,0,1,6.73-3.13c4.81,0,8.16,3.22,8.16,7.84V27.86a1.42,1.42,0,0,1-1.42,1.42Z" transform="translate(-0.74 -0.36)"/><path class="cls-2" d="M99.59,29.64a9.82,9.82,0,0,1-10.09-10,10.1,10.1,0,0,1,20.19,0A9.83,9.83,0,0,1,99.59,29.64Zm0-16a5.78,5.78,0,0,0-5.86,6,5.86,5.86,0,1,0,11.71,0A5.78,5.78,0,0,0,99.59,13.67Z" transform="translate(-0.74 -0.36)"/><path class="cls-2" d="M122.1,29.64a8.84,8.84,0,0,1-5.84-2v.22a1.42,1.42,0,0,1-1.42,1.42h-1.36a1.42,1.42,0,0,1-1.42-1.42V2.13A1.42,1.42,0,0,1,113.48.71h1.36a1.42,1.42,0,0,1,1.42,1.42v9.53a8.83,8.83,0,0,1,5.84-2c5.48,0,9.62,4.29,9.62,10S127.58,29.64,122.1,29.64Zm-.34-16c-3.35,0-5.69,2.45-5.69,6s2.34,6,5.69,6,5.7-2.46,5.7-6A5.71,5.71,0,0,0,121.76,13.67Z" transform="translate(-0.74 -0.36)"/><path class="cls-2" d="M135.51,29.28a1.42,1.42,0,0,1-1.42-1.42V11.44A1.42,1.42,0,0,1,135.51,10h1.36a1.42,1.42,0,0,1,1.42,1.42V27.86a1.42,1.42,0,0,1-1.42,1.42ZM136.19,7a2.64,2.64,0,0,1-2.66-2.66,2.67,2.67,0,1,1,5.35,0A2.65,2.65,0,0,1,136.19,7Z" transform="translate(-0.74 -0.36)"/><path class="cls-2" d="M148.52,29.62a13.72,13.72,0,0,1-7.23-2,1.42,1.42,0,0,1-.44-1.94l.52-.85a1.42,1.42,0,0,1,2-.44,9.17,9.17,0,0,0,5.2,1.39c1,0,4.25-.16,4.25-2.21,0-.39,0-1.56-3.14-1.93l-2.13-.24c-5.67-.69-6.52-3.82-6.52-5.63,0-3.71,3.07-6.1,7.82-6.1a14.4,14.4,0,0,1,6.8,1.65,1.42,1.42,0,0,1,.55,1.93l-.51.91a1.42,1.42,0,0,1-1.91.56,11,11,0,0,0-4.91-1.22c-1.72,0-3.55.56-3.55,2.13,0,.68.35,1.51,3,1.84l2.12.27c5.46.71,6.6,3.47,6.6,5.66C157.08,27.18,153.72,29.62,148.52,29.62Z" transform="translate(-0.74 -0.36)"/><path class="cls-2" d="M168.19,29.64a9.82,9.82,0,0,1-10.09-10,10.1,10.1,0,0,1,20.2,0A9.83,9.83,0,0,1,168.19,29.64Zm0-16a5.78,5.78,0,0,0-5.86,6,5.86,5.86,0,1,0,11.71,0A5.78,5.78,0,0,0,168.19,13.67Z" transform="translate(-0.74 -0.36)"/><path class="cls-2" d="M183.36,29.28a1.42,1.42,0,0,1-1.42-1.42V13.94h-2.66a1.42,1.42,0,0,1-1.42-1.42V11.44A1.42,1.42,0,0,1,179.28,10h2.66V7.65c0-4.63,2.42-7.29,6.63-7.29a10,10,0,0,1,4.6,1.08,1.42,1.42,0,0,1,.66,1.82l-.44,1a1.42,1.42,0,0,1-1.9.72,6.66,6.66,0,0,0-2.73-.65c-.72,0-2.62,0-2.62,3.29V10h6.59a1.42,1.42,0,0,1,1.42,1.42v1.08a1.42,1.42,0,0,1-1.42,1.42h-6.59V27.86a1.42,1.42,0,0,1-1.42,1.42Z" transform="translate(-0.74 -0.36)"/><path class="cls-2" d="M202.89,29.64c-4.4,0-6.82-2.59-6.82-7.29V13.94h-2.49a1.42,1.42,0,0,1-1.42-1.42V11.44A1.42,1.42,0,0,1,193.58,10h2.49V5.76a1.42,1.42,0,0,1,1.42-1.42h1.34a1.42,1.42,0,0,1,1.42,1.42V10h6.31A1.42,1.42,0,0,1,208,11.44v1.08a1.42,1.42,0,0,1-1.42,1.42h-6.31v8.35c0,1.52.5,3.34,2.87,3.34a5.66,5.66,0,0,0,2.82-.78,1.42,1.42,0,0,1,1.91.48l.56.9a1.42,1.42,0,0,1-.44,1.94A9.26,9.26,0,0,1,202.89,29.64Z" transform="translate(-0.74 -0.36)"/></svg>